<mxfile host="65bd71144e">
    <diagram id="5DWiYTwKpYNVgUFUFZZJ" name="Página-1">
        <mxGraphModel dx="1386" dy="802" grid="1" gridSize="10" guides="1" tooltips="1" connect="1" arrows="1" fold="1" page="1" pageScale="1" pageWidth="850" pageHeight="1100" math="0" shadow="0">
            <root>
                <mxCell id="0"/>
                <mxCell id="1" parent="0"/>
                <mxCell id="12" style="edgeStyle=none;html=1;" edge="1" parent="1" source="4" target="5">
                    <mxGeometry relative="1" as="geometry"/>
                </mxCell>
                <mxCell id="4" value="frase" style="text;html=1;align=center;verticalAlign=middle;resizable=0;points=[];autosize=1;strokeColor=none;fillColor=none;" vertex="1" parent="1">
                    <mxGeometry x="285" y="118" width="50" height="30" as="geometry"/>
                </mxCell>
                <mxCell id="13" style="edgeStyle=none;html=1;" edge="1" parent="1" source="5" target="7">
                    <mxGeometry relative="1" as="geometry"/>
                </mxCell>
                <mxCell id="14" style="edgeStyle=none;html=1;" edge="1" parent="1" source="5" target="8">
                    <mxGeometry relative="1" as="geometry"/>
                </mxCell>
                <mxCell id="5" value="sujeto" style="text;html=1;align=center;verticalAlign=middle;resizable=0;points=[];autosize=1;strokeColor=none;fillColor=none;" vertex="1" parent="1">
                    <mxGeometry x="200" y="168" width="60" height="30" as="geometry"/>
                </mxCell>
                <mxCell id="17" style="edgeStyle=none;html=1;" edge="1" parent="1" source="6" target="10">
                    <mxGeometry relative="1" as="geometry"/>
                </mxCell>
                <mxCell id="6" value="predicado" style="text;html=1;align=center;verticalAlign=middle;resizable=0;points=[];autosize=1;strokeColor=none;fillColor=none;" vertex="1" parent="1">
                    <mxGeometry x="425" y="168" width="80" height="30" as="geometry"/>
                </mxCell>
                <mxCell id="7" value="articulo" style="text;html=1;align=center;verticalAlign=middle;resizable=0;points=[];autosize=1;strokeColor=none;fillColor=none;" vertex="1" parent="1">
                    <mxGeometry x="110" y="228" width="60" height="30" as="geometry"/>
                </mxCell>
                <mxCell id="8" value="nombre" style="text;html=1;align=center;verticalAlign=middle;resizable=0;points=[];autosize=1;strokeColor=none;fillColor=none;" vertex="1" parent="1">
                    <mxGeometry x="200" y="228" width="60" height="30" as="geometry"/>
                </mxCell>
                <mxCell id="9" value="adjetivo" style="text;html=1;align=center;verticalAlign=middle;resizable=0;points=[];autosize=1;strokeColor=none;fillColor=none;" vertex="1" parent="1">
                    <mxGeometry x="285" y="228" width="60" height="30" as="geometry"/>
                </mxCell>
                <mxCell id="10" value="verbo" style="text;html=1;align=center;verticalAlign=middle;resizable=0;points=[];autosize=1;strokeColor=none;fillColor=none;" vertex="1" parent="1">
                    <mxGeometry x="390" y="228" width="50" height="30" as="geometry"/>
                </mxCell>
                <mxCell id="11" value="adverbio" style="text;html=1;align=center;verticalAlign=middle;resizable=0;points=[];autosize=1;strokeColor=none;fillColor=none;" vertex="1" parent="1">
                    <mxGeometry x="490" y="228" width="70" height="30" as="geometry"/>
                </mxCell>
                <mxCell id="15" style="edgeStyle=none;html=1;entryX=0.45;entryY=-0.033;entryDx=0;entryDy=0;entryPerimeter=0;" edge="1" parent="1" source="5" target="9">
                    <mxGeometry relative="1" as="geometry"/>
                </mxCell>
                <mxCell id="16" style="edgeStyle=none;html=1;entryX=0.05;entryY=0.2;entryDx=0;entryDy=0;entryPerimeter=0;" edge="1" parent="1" source="4" target="6">
                    <mxGeometry relative="1" as="geometry"/>
                </mxCell>
                <mxCell id="18" style="edgeStyle=none;html=1;entryX=0.357;entryY=-0.033;entryDx=0;entryDy=0;entryPerimeter=0;" edge="1" parent="1" source="6" target="11">
                    <mxGeometry relative="1" as="geometry"/>
                </mxCell>
                <mxCell id="19" value="intencion (1.0)" style="text;html=1;align=center;verticalAlign=middle;resizable=0;points=[];autosize=1;strokeColor=none;fillColor=none;" vertex="1" parent="1">
                    <mxGeometry x="550" y="650" width="100" height="30" as="geometry"/>
                </mxCell>
                <mxCell id="20" value="ayuda (1.0)" style="text;html=1;align=center;verticalAlign=middle;resizable=0;points=[];autosize=1;strokeColor=none;fillColor=none;" vertex="1" parent="1">
                    <mxGeometry x="230" y="780" width="80" height="30" as="geometry"/>
                </mxCell>
                <mxCell id="21" value="motivación (1.0)" style="text;html=1;align=center;verticalAlign=middle;resizable=0;points=[];autosize=1;strokeColor=none;fillColor=none;" vertex="1" parent="1">
                    <mxGeometry x="550" y="780" width="110" height="30" as="geometry"/>
                </mxCell>
                <mxCell id="22" value="queja (1.0)" style="text;html=1;align=center;verticalAlign=middle;resizable=0;points=[];autosize=1;strokeColor=none;fillColor=none;" vertex="1" parent="1">
                    <mxGeometry x="795" y="780" width="80" height="30" as="geometry"/>
                </mxCell>
                <mxCell id="42" style="edgeStyle=none;html=1;" edge="1" parent="1" source="23" target="25">
                    <mxGeometry relative="1" as="geometry"/>
                </mxCell>
                <mxCell id="43" style="edgeStyle=none;html=1;" edge="1" parent="1" source="23" target="26">
                    <mxGeometry relative="1" as="geometry"/>
                </mxCell>
                <mxCell id="23" value="familia (0.9)" style="text;html=1;align=center;verticalAlign=middle;resizable=0;points=[];autosize=1;strokeColor=none;fillColor=none;" vertex="1" parent="1">
                    <mxGeometry x="85" y="838" width="90" height="30" as="geometry"/>
                </mxCell>
                <mxCell id="46" style="edgeStyle=none;html=1;" edge="1" parent="1" source="24" target="29">
                    <mxGeometry relative="1" as="geometry"/>
                </mxCell>
                <mxCell id="24" value="pareja (0.9)" style="text;html=1;align=center;verticalAlign=middle;resizable=0;points=[];autosize=1;strokeColor=none;fillColor=none;" vertex="1" parent="1">
                    <mxGeometry x="325" y="838" width="80" height="30" as="geometry"/>
                </mxCell>
                <mxCell id="25" value="familia (0.8&lt;span style=&quot;background-color: transparent;&quot;&gt;)&lt;/span&gt;" style="text;html=1;align=center;verticalAlign=middle;resizable=0;points=[];autosize=1;strokeColor=none;fillColor=none;" vertex="1" parent="1">
                    <mxGeometry x="5" y="888" width="90" height="30" as="geometry"/>
                </mxCell>
                <mxCell id="26" value="papá (0.8)" style="text;html=1;align=center;verticalAlign=middle;resizable=0;points=[];autosize=1;strokeColor=none;fillColor=none;" vertex="1" parent="1">
                    <mxGeometry x="80" y="888" width="80" height="30" as="geometry"/>
                </mxCell>
                <mxCell id="27" value="mamá (0.8)" style="text;html=1;align=center;verticalAlign=middle;resizable=0;points=[];autosize=1;strokeColor=none;fillColor=none;" vertex="1" parent="1">
                    <mxGeometry x="150" y="888" width="80" height="30" as="geometry"/>
                </mxCell>
                <mxCell id="28" value="pareja (0.8)" style="text;html=1;align=center;verticalAlign=middle;resizable=0;points=[];autosize=1;strokeColor=none;fillColor=none;" vertex="1" parent="1">
                    <mxGeometry x="240" y="888" width="80" height="30" as="geometry"/>
                </mxCell>
                <mxCell id="29" value="novios (0.8)" style="text;html=1;align=center;verticalAlign=middle;resizable=0;points=[];autosize=1;strokeColor=none;fillColor=none;" vertex="1" parent="1">
                    <mxGeometry x="305" y="888" width="90" height="30" as="geometry"/>
                </mxCell>
                <mxCell id="30" value="relación (0.8)" style="text;html=1;align=center;verticalAlign=middle;resizable=0;points=[];autosize=1;strokeColor=none;fillColor=none;" vertex="1" parent="1">
                    <mxGeometry x="380" y="888" width="90" height="30" as="geometry"/>
                </mxCell>
                <mxCell id="31" value="lograr (0.9)" style="text;html=1;align=center;verticalAlign=middle;resizable=0;points=[];autosize=1;strokeColor=none;fillColor=none;" vertex="1" parent="1">
                    <mxGeometry x="495" y="888" width="80" height="30" as="geometry"/>
                </mxCell>
                <mxCell id="32" value="creer (0.9)" style="text;html=1;align=center;verticalAlign=middle;resizable=0;points=[];autosize=1;strokeColor=none;fillColor=none;" vertex="1" parent="1">
                    <mxGeometry x="565" y="888" width="80" height="30" as="geometry"/>
                </mxCell>
                <mxCell id="33" value="poder (0.9)" style="text;html=1;align=center;verticalAlign=middle;resizable=0;points=[];autosize=1;strokeColor=none;fillColor=none;" vertex="1" parent="1">
                    <mxGeometry x="635" y="888" width="80" height="30" as="geometry"/>
                </mxCell>
                <mxCell id="34" value="odio (0.9)" style="text;html=1;align=center;verticalAlign=middle;resizable=0;points=[];autosize=1;strokeColor=none;fillColor=none;" vertex="1" parent="1">
                    <mxGeometry x="730" y="888" width="70" height="30" as="geometry"/>
                </mxCell>
                <mxCell id="35" value="asco (0.9)" style="text;html=1;align=center;verticalAlign=middle;resizable=0;points=[];autosize=1;strokeColor=none;fillColor=none;" vertex="1" parent="1">
                    <mxGeometry x="795" y="888" width="80" height="30" as="geometry"/>
                </mxCell>
                <mxCell id="36" value="copaso (0.9)" style="text;html=1;align=center;verticalAlign=middle;resizable=0;points=[];autosize=1;strokeColor=none;fillColor=none;" vertex="1" parent="1">
                    <mxGeometry x="860" y="888" width="90" height="30" as="geometry"/>
                </mxCell>
                <mxCell id="37" style="edgeStyle=none;html=1;entryX=0.517;entryY=-0.033;entryDx=0;entryDy=0;entryPerimeter=0;" edge="1" parent="1" source="19" target="20">
                    <mxGeometry relative="1" as="geometry"/>
                </mxCell>
                <mxCell id="38" style="edgeStyle=none;html=1;entryX=0.438;entryY=0;entryDx=0;entryDy=0;entryPerimeter=0;" edge="1" parent="1" source="19" target="21">
                    <mxGeometry relative="1" as="geometry"/>
                </mxCell>
                <mxCell id="39" style="edgeStyle=none;html=1;entryX=0.04;entryY=0.2;entryDx=0;entryDy=0;entryPerimeter=0;" edge="1" parent="1" source="19" target="22">
                    <mxGeometry relative="1" as="geometry"/>
                </mxCell>
                <mxCell id="40" style="edgeStyle=none;html=1;entryX=0.917;entryY=0.133;entryDx=0;entryDy=0;entryPerimeter=0;" edge="1" parent="1" source="20" target="23">
                    <mxGeometry relative="1" as="geometry"/>
                </mxCell>
                <mxCell id="41" style="edgeStyle=none;html=1;entryX=0.05;entryY=0.233;entryDx=0;entryDy=0;entryPerimeter=0;" edge="1" parent="1" source="20" target="24">
                    <mxGeometry relative="1" as="geometry"/>
                </mxCell>
                <mxCell id="44" style="edgeStyle=none;html=1;entryX=0.167;entryY=0.067;entryDx=0;entryDy=0;entryPerimeter=0;" edge="1" parent="1" source="23" target="27">
                    <mxGeometry relative="1" as="geometry"/>
                </mxCell>
                <mxCell id="45" style="edgeStyle=none;html=1;entryX=0.733;entryY=-0.033;entryDx=0;entryDy=0;entryPerimeter=0;" edge="1" parent="1" source="24" target="28">
                    <mxGeometry relative="1" as="geometry"/>
                </mxCell>
                <mxCell id="47" style="edgeStyle=none;html=1;entryX=0.543;entryY=0;entryDx=0;entryDy=0;entryPerimeter=0;" edge="1" parent="1" source="24" target="30">
                    <mxGeometry relative="1" as="geometry"/>
                </mxCell>
                <mxCell id="48" style="edgeStyle=none;html=1;entryX=0.62;entryY=-0.033;entryDx=0;entryDy=0;entryPerimeter=0;" edge="1" parent="1" source="21" target="31">
                    <mxGeometry relative="1" as="geometry"/>
                </mxCell>
                <mxCell id="49" style="edgeStyle=none;html=1;entryX=0.5;entryY=-0.067;entryDx=0;entryDy=0;entryPerimeter=0;" edge="1" parent="1" source="21" target="32">
                    <mxGeometry relative="1" as="geometry"/>
                </mxCell>
                <mxCell id="50" style="edgeStyle=none;html=1;entryX=0.5;entryY=-0.033;entryDx=0;entryDy=0;entryPerimeter=0;" edge="1" parent="1" source="21" target="33">
                    <mxGeometry relative="1" as="geometry"/>
                </mxCell>
                <mxCell id="51" style="edgeStyle=none;html=1;entryX=0.62;entryY=-0.033;entryDx=0;entryDy=0;entryPerimeter=0;" edge="1" parent="1" source="22" target="34">
                    <mxGeometry relative="1" as="geometry"/>
                </mxCell>
                <mxCell id="52" style="edgeStyle=none;html=1;entryX=0.46;entryY=-0.067;entryDx=0;entryDy=0;entryPerimeter=0;" edge="1" parent="1" source="22" target="35">
                    <mxGeometry relative="1" as="geometry"/>
                </mxCell>
                <mxCell id="53" style="edgeStyle=none;html=1;entryX=0.45;entryY=0.1;entryDx=0;entryDy=0;entryPerimeter=0;" edge="1" parent="1" source="22" target="36">
                    <mxGeometry relative="1" as="geometry"/>
                </mxCell>
                <mxCell id="54" value="" style="shape=image;verticalLabelPosition=bottom;labelBackgroundColor=default;verticalAlign=top;aspect=fixed;imageAspect=0;image=data:image/png,iVBORw0KGgoAAAANSUhEUgAAA7AAAAEaCAYAAAAopbtjAAAEDmlDQ1BrQ0dDb2xvclNwYWNlR2VuZXJpY1JHQgAAOI2NVV1oHFUUPpu5syskzoPUpqaSDv41lLRsUtGE2uj+ZbNt3CyTbLRBkMns3Z1pJjPj/KRpKT4UQRDBqOCT4P9bwSchaqvtiy2itFCiBIMo+ND6R6HSFwnruTOzu5O4a73L3PnmnO9+595z7t4LkLgsW5beJQIsGq4t5dPis8fmxMQ6dMF90A190C0rjpUqlSYBG+PCv9rt7yDG3tf2t/f/Z+uuUEcBiN2F2Kw4yiLiZQD+FcWyXYAEQfvICddi+AnEO2ycIOISw7UAVxieD/Cyz5mRMohfRSwoqoz+xNuIB+cj9loEB3Pw2448NaitKSLLRck2q5pOI9O9g/t/tkXda8Tbg0+PszB9FN8DuPaXKnKW4YcQn1Xk3HSIry5ps8UQ/2W5aQnxIwBdu7yFcgrxPsRjVXu8HOh0qao30cArp9SZZxDfg3h1wTzKxu5E/LUxX5wKdX5SnAzmDx4A4OIqLbB69yMesE1pKojLjVdoNsfyiPi45hZmAn3uLWdpOtfQOaVmikEs7ovj8hFWpz7EV6mel0L9Xy23FMYlPYZenAx0yDB1/PX6dledmQjikjkXCxqMJS9WtfFCyH9XtSekEF+2dH+P4tzITduTygGfv58a5VCTH5PtXD7EFZiNyUDBhHnsFTBgE0SQIA9pfFtgo6cKGuhooeilaKH41eDs38Ip+f4At1Rq/sjr6NEwQqb/I/DQqsLvaFUjvAx+eWirddAJZnAj1DFJL0mSg/gcIpPkMBkhoyCSJ8lTZIxk0TpKDjXHliJzZPO50dR5ASNSnzeLvIvod0HG/mdkmOC0z8VKnzcQ2M/Yz2vKldduXjp9bleLu0ZWn7vWc+l0JGcaai10yNrUnXLP/8Jf59ewX+c3Wgz+B34Df+vbVrc16zTMVgp9um9bxEfzPU5kPqUtVWxhs6OiWTVW+gIfywB9uXi7CGcGW/zk98k/kmvJ95IfJn/j3uQ+4c5zn3Kfcd+AyF3gLnJfcl9xH3OfR2rUee80a+6vo7EK5mmXUdyfQlrYLTwoZIU9wsPCZEtP6BWGhAlhL3p2N6sTjRdduwbHsG9kq32sgBepc+xurLPW4T9URpYGJ3ym4+8zA05u44QjST8ZIoVtu3qE7fWmdn5LPdqvgcZz8Ww8BWJ8X3w0PhQ/wnCDGd+LvlHs8dRy6bLLDuKMaZ20tZrqisPJ5ONiCq8yKhYM5cCgKOu66Lsc0aYOtZdo5QCwezI4wm9J/v0X23mlZXOfBjj8Jzv3WrY5D+CsA9D7aMs2gGfjve8ArD6mePZSeCfEYt8CONWDw8FXTxrPqx/r9Vt4biXeANh8vV7/+/16ffMD1N8AuKD/A/8leAvFY9bLAAAAbGVYSWZNTQAqAAAACAAEARoABQAAAAEAAAA+ARsABQAAAAEAAABGASgAAwAAAAEAAgAAh2kABAAAAAEAAABOAAAAAAAFP6sAABKqAAtaqQAAKH4AAqACAAQAAAABAAADsKADAAQAAAABAAABGgAAAAB0G+LaAAAACXBIWXMAAAsSAAALCgFQxualAABAAElEQVR4AeydB5wUtRfHH3ocIkpHKYIggjRBikpVqoh0pCNFpIgIiPRepTeVIr2jFKVLLyLwtwGC0lWadFEEKQJ6f37Budu+2bvZ3dnd3/t87mYm8yZ5+WYyO5kkL4li7oq4kVu3bqkz0dHRbjTuBZuth1hPnjwpWbJkCWi6uvmgfa6LhfwSxoX8yM8gwOefQSJuy/oRx8J2T5eLrh7i5v1nS/jePvk5M0GILhddPcTJ+w8U7CUS+a1fv16qVKliD8LhSJeLrh6i5/3nAPnuoRX53edsJkNIgARIgARIgARIgARIgARIgARIwHoE2IC1XpnQIhIgARIgARIgARIgARKIWAJPPPFExOadGfdOgA1Y74yoQQIkQAIkQAIkQAIkQAIkECACTz75ZIBSYjKhSIAN2FAsNdpMAiRAAiRAAiRAAiRAAiRAAhFIgA3YCCx0ZpkESIAESIAESIAESIAErErgp59+sqpptMsCBKIMz1KubLl9+7arYKcws/WQAJwje7INOmanqxsf7QMBZyE/ZyYI0eWiq4c4WT9AwV7Iz56HcaTLRVcP8fL+M+jGbckvjoXtni4XXT3EzfvPlvC9ffJzZoIQXS66eoiT9x8o2Is/+P3yyy/ibRixbrq6esgVy9e+bHFkRX7sgXUuJ4aQAAmQAAmQAAmQAAmQAAmQAAlYkECUtzVeYbOOjtl6iRIlCkq6uvmgfSDlWnTuF/JzzQ6h5OeajQ4X8nPNTpeLrh7rb8I4kx/5GQTMfK6x/hpUnbdmcmb9deZrhOhw1uUHL8Q68SFtM/V07TM7Xd34aB9IibAH9h4H/icBEiABEiABEiABEiABErAAAW/Dhy1gIk0IIgE2YIMIn0mTAAmQAAmQAAmQAAmQAAmQAAnoE2ADVp8VNUmABEiABEiABEiABEiABPxMgF6I/Qw4xKNnAzbEC5DmkwAJkAAJkAAJkAAJkEA4EYAXYgoJuCPABqw7MgwnARIgARIgARIgARIgARIgARKwFAE2YC1VHDSGBEiABEiABEiABEiABCKbALwQU0jAHQE2YN2RYTgJkAAJkAAJkAAJkAAJkEDACdALccCRh1SCUbdu3XJr8O3bt92esz1hth7ijomJEU+2QcfsdHXjo30g4Czk58wEIbpcdPUQJ+sHKNgL+dnzMI50uejqIV7efwbduC35xbGw3dPloquHuHn/2RK+t09+zkwQostFVw9x8v4DBXshP3sexpEuF109xMv77x5d9sAadxm3JEACJEACJEACIU2gcOHC8v7773vMw9GjR2X69OkedeJ7EulPmzYtvpfzOhIggf8IHDt2jCxIwC2BqOjoaLcnjRM6OtA1Uy9RokSmxkf7jNJ03ppZbrqcWb7O5WCE6JQH+Rm0nLfk58wEITpcdPV4/7lmTH4J42IGv0mTJknmzJklceLEyhhX9/2ePXtk8ODB0qZNm1iDXenFnrTZ8aaH9O+77z5T6xuS95auYaKOHuuvQct5S37OTBCiw0VXT/f+O378uOTLl8+1QQ6hwbBPN79m6+nyMztd3fgCZR97YFEiFBIgARIgARIggZAnMH78eNmxY4dcv35d8ufPLyNHjpRs2bJJpkyZZMSIEXLw4EHp1q2bnDlzRsqWLavye/LkSalQoYKkTp1annvuOdm+fbsKHzp0qLRt21YqV64s6dOnlxdffFFdh5MXL16UihUrysMPPyxFihSRJUuWqGuQ/q5du9Q+toUKFVI6uXPnlrVr16pwxNuhQwepXr26SrN48eKx8SoF/iMBEiABEvBIgA1Yj3h4kgRIgARIgARIIFQIHDhwQM6dOyf//POPHD58WD744APViEXDFA3XNGnSSIMGDSRVqlQyYMAA+ffff6VKlSry559/qqG/zzzzjJQqVUp+++03OX36tEycOFHgTAaNTsQ3fPhwhaJhw4aChu/ChQsFw4bRIL1z544g/QsXLsiNGzfklVdekQceeEAWLVokZcqUkTp16qg4Ee9HH30k2bNnV43qQ4cOxcYbKpxpJwn4mwC9EPubcGjHHxXa5tN6EiABEiABEiABEnBNAD2i6OksX768LFu2TDUg0UhNmjSpaqhu2rRJNUzRM5srVy6pWbOm6k1dvny5ihC9uJhTC6eS3333nRw5ckT++OMP2bhxo4oPjVT03qIhjAatIStWrFANWTR6U6ZMKZUqVZK5c+eKbbxjxoxRQzO//fZbFa9xLbckQAKiPhyRAwm4I8AGrDsyDCcBEiABEiABEghpAujlhKARCUHPqK2gQQrBEF9bOX/+vDp8/PHHY4OTJ08uN2/elJ9++kmFFShQQG0x33bq1Kmxetj55ZdfJGvWrLHpIgxDmc+ePYtdyZIli9riX4oUKVS8sQHcIQESIAES8EiAQ4g94uFJEiABEiABEiCBUCVw//33ezTdaNii9/TKlSvqb8uWLdKsWTN1navrc+bMqc6dOnVKbdH7OnDgQLseWPTcYhgyhhVDsPQFvKqWLFlSHcPRE4UESMA9AeNDkXsNnolkAnyCRnLpM+8kQAIkQAIkEGEE0HhETyzWXoQDJQjmuqIndeXKlWq+KuapuhP0mKIhOnr0aLl06ZIaYjxhwgTJkCFD7CUYVgyBEymkg7myEMNxlDrgPxIgAbcEMIqBQgLuCLAB644Mw0mABEiABEiABEKOAJZxcCdovBqNVjiJQaMT82SHDRum5sU2atRIOnXqJM8++6zLKIy4+/fvL5g/mzZtWnXtkCFDYpfuMZaR6Nq1q/Ts2VN5GobjqH79+sXqOEZuxOsYzmMSIAESIAFnAlFwTOBO8NVQR8zWQ5oYbuPJNuiYna5ufLQPBJyF/JyZIESXi64e4mT9AAV7IT97HsaRLhddPcTL+8+gG7clvzgWtnu6XHT1ELen+w+OliCI76+//lINRuNd4u+//1bn8A/Df69du6b0MFy4Xr16ypkT5q2mS5dOvX/AyRIE1yM+DBNGLy2O4akY3o5PnDghaAijYYxwpI95rtiH1+M33nhDDR2GgygsuYNwxIv4jDxjTVojHbVj88/QsQlyuaurh4s98TMi143PbD3aZ5SA/VaXczjxQ11EffEkulx09cKJnyduxjldLrp6geRHJ05GKXJLAiRAAiRAAiQQEQTQEMX8V+PFDA6a3PW6ugOCOLDEjidBDy3+KCRAAr4RgNMzCgm4IxAVHR3t7lxsuI4OlM3UM4bgxBrhYcfMdHXzQfvcF4hOeZAf+RkEdO4X3Xqpq8f7z6DvvNUpD/Jz5maEkJ9Bwn6rwwVX6Ojx/rNna3tEfrY04vZ1uEBbR4/3XxxXxz3ycyRy71iHCzR19Hj/3WPKObD3OPA/CZAACZAACZAACZAACZCABQjQC7EFCsHCJrABa+HCoWkkQAIkQAIkQAIkQAIkEGkE6IU40krct/yyAesbL2qTAAmQAAmQAAmQAAmQAAmQAAkEiQAbsEECz2RJgARIgARIgARIgARIgAScCcC7N4UE3BFgA9YdGYaTAAmQAAmQAAmQAAmQAAkEnIA3D98BN4gJWooAG7CWKg4aQwIkQAIkQAIksGHDBsH6rN27dycMEiABEiABErAjwAasHQ4ekAAJkAAJkAAJBIPAzp075a233pKsWbNKq1at5KGHHpKaNWsGwxSmSQIkEGQC9EIc5AKwePJRFreP5pEACZAACZAACYQpgb1798rcuXNlxYoV8tdff0mlSpVk+vTpUq5cuTDNMbNFAiSgQwBeiPPkyaOjSp0IJJDoxIkTMe7yHRNz7xQWzfUkZushratXr8rDDz/sKVkxO13d+Gif62Ihv4RxIT/yMwjw+WeQiNuyfsSxsN3T5aKrh7j9ff/dfe+QTz/9VNavXy/nzp2TUqVKSbVq1aR8+fLi7X0jEPbZ8jX2wW/AgAHSu3dviYry/O0/ofwwfHr+/PnSrVs3yZUrlzLBGxcrla/BzHZL+2xpxO3rctHVQ8wJvf/irBPT37N9se+HH36Q/Pnz25rjtK/LRVfPF/uga1a9pH1ORasCPHFJdPek2wbsrVu3VATR0dGuY/4v1Gw9RHvy5EnJkiVLQNPVzQftc10s5JcwLuRHfgYBPv8MEnFb1o84FrZ7ulx09RC3P+6/33//XWbNmiWfffaZHDp0SMqWLSv16tWTBg0aqOwE2z6d95xkyZLJjRs3vDZgzeDXsWNHmThxojRt2lRGjRolyZMnty12p/1Q4AejvXGGjhn8EA9El4uuHuKkfaBgL/7ghyHE3npgddPV1UOuWL72ZYsjK/LjHFjncmIICZAACZAACZBAAglcu3ZNJkyYoIYDP/7447JlyxZp3bq1XLlyRZYtWxbbeE1gMmF5+dixY2X//v1y4cIFyZ49uwwfPjws88lMkYA7AvRC7I4Mw0GADVjeByRAAiRAAiRAAqYRwBzWihUrSurUqVWPa61atQQ9sOvWrZM33njDtHTCPSK8wC9atEjNCV6yZIk8/fTTgi2FBEiABCKdABuwkX4HMP8kQAIkQAIkkEACH3/8sdSoUUMNdZ08ebKULl1aMNd106ZN0rZtW8HwW0r8CLz88svy7bffKs/MGFoMR1fff/99/CLjVSQQIgTohThECipIZrIBGyTwTJYESIAESIAEQpnAqlWr1DDgtGnTytChQ1UP4e7du+Wbb76RHj16SPr06UM5e5azvV27dnLq1CnJnTu3FC1aVA3HxpxcCgmEIwF4IaaQgDsCbMC6I8NwEiABEiABEiABOwLoUcUwYKzV2r17d8mYMaPqZd23b58MGjRIOG/NDpdfDsaMGaPmx/7222/K2SU+HlBIgARIIJIIsAEbSaXNvJIACZAACZCAjwS+/vprQe9ftmzZpHnz5pIkSRJZsGCB/PjjjzJ69GgpUKCAjzGGrrqHhRsCmik4dsJSRHPmzJGlS5dKwYIFOT82oCXAxPxN4IknnvB3Eow/hAmwARvChUfTSYAESIAESMAfBNA47dq1qxquWr16dbW25JQpU9S8VizvUrx4cX8kyzh9JID5sBiy3apVK7VuLObL7tmzx8dYqE4C1iPA0RzWKxMrWRRlrO3jyqjbt2+7CnYKM1sPCeArpyfboGN2urrx0T4QcBbyc2aCEF0uunqIk/UDFOyF/Ox5GEe6XHT1EC/vP4Nu3DYc+MHpEnr0sFbr2bNn1fI3GBZcrVq12Iwav8u6+TVbD4YE6/5LlCiRei9B+p4kGPa1aNFC8NerVy8pUaKENGzYUK0f++CDDzqZGgz7dO8DGEv7nIpM+z2C/JzZIYT3X8K4WJEfe2BdlylDSYAESIAESCDsCWAeJYYBlypVSg1DRe8devPOnTsn8+fPt2u8hj2MMMjgiBEjBI60sGwRerC4fmwYFGqEZuHYsWMRmnNmW4dAVHR0tFc9HR1EYqYevnSaGR/tc1/MweDM8k1YeZAf+RkEWH8NEnFb1o84Fo57uF/guXbGjBlqzuS2bdukbNmyyjETevDuu+8+OXnyJH9/HcH9dwx+iRMndnP2XnCw779cuXKpXvS1a9dKv3795JNPPpG+fftKvXr1lIHBts8jvLsnaZ97QjrP+3Dhd/z4ccmXL597GDZndLhAXUcvXPjp5tdsvUDxYw8sSo5CAiRAAiRAAmFOAMODX3nlFUmTJo1g3VbMbUVP3YYNG1SvKxqvlPAhgPmwcMD11ltvSZcuXaRixYqya9eu8Mkgc0ICJBCxBPhrFbFFz4yTAAmQAAmEO4HFixdLrVq1JF26dDJp0iQ1P/Knn36S7du3yzvvvCMpUqQIdwQRn7+2bduqXvWnn35aDRXH8kfXrl2LeC4EYG0C9EJs7fIJtnVswAa7BJg+CZAACZAACZhIYPXq1fLaa6+pRuuAAQMEQ0p37twp//vf/5STH6zdSok8AqNGjZIDBw7IlStX5PHHH5f33nsv8iAwxyFDgF6IQ6aogmIoG7BBwc5ESYAESIAESMA8Alu3bpWWLVvKY489Jh06dFCNV8yBxHI4Q4YMkRw5cpiXGGMKWQJZs2YVLIOEIeQrV66UvHnzqjmyIZshGk4CJBCRBNiAjchiZ6ZJgARIgARCncC3334r7777rlqrtXHjxsoBExomGCI8duxYKVy4cKhnkfb7iUCFChXkq6++Egwv7tatm7z00kvy3Xff+Sk1RksCvhPAc4xCAu4IsAHrjgzDSYAESIAESMBiBA4ePCg9evRQPWdVqlSRy5cvq8bqqVOnZPLkyWqOo8VMpjkWJgAHT1j/t0CBAvLiiy+qtWQxxJhCAsEm8MsvvwTbBKZvYQJswFq4cGgaCZAACZAACWBZm0GDBqke1eLFi8vRo0dl4MCBcv78ebUcDrzNUkggIQRGjhwZOz82W7ZsMnTo0IREx2tJgARIwK8Eom7duuU2gdu3b7s9Z3vCbD3EHRMTI55sg47Z6erGR/tAwFnIz5kJQnS56OohTtYPULAX8rPnYRzpctHVQ7y8/wy6cVuz+V28eFGw7A3mKe7du1f1jmG4J5wzGYLfSN10dfUQN8vXIBy3NfiBOfh4klDllyFDBpk3b55s2rRJ+vfvr+bJ9urVK3b9WFd5Nri4OmcbpquHa0KVX3zyq8tFVy+c+GG+dqDbAeHEz/Z+dLeve1/p6gWSH3tg3ZUqw0mABEiABEgggATwkjBlyhRBjyqcMa1bt04aNGgg586dk2XLltk1XgNoFpOKMALlypWTzZs3S5s2baR3795SqVIlzo+NsHvACtnFSAAKCbgjEBUdHe3uXGy4jg6UzdRLlCiRqfHRvtjidNoxs9x0ObN8nYohNkCnPMgvFpfTDvk5IVEBOlygqKPH+8814/jymzt3rixcuFC2bNkizzzzjNSsWVMWLFggqVOn1ioP3XR19Vi+7ss3ceLEXsskXPihAQuP1l27dhU4fapfv76MGTPG5drBOs8N3n/u7yvyc83GTC68/1wz1uWiqxeo5x97YN2XJ8+QAAmQAAmQgF8IfPrpp1KnTh1JlSqVcsL0/PPPCxw07dixQzp37qwar35JmJHGmwBezCJRRowYoe7Nv/76S9ArhvnYFBLwNwF6IfY34dCOnw3Y0C4/Wk8CJEACJBAiBLAua5MmTZQzpr59+0r27Nll586dsnv3bunTp49kyZIlRHJCMyONAO5NjBJYvHixrFmzRi3dhFECFBLwFwF6IfYX2fCIlw3Y8ChH5oIESIAESMCCBL788kt58803VeMUTphSpkwpM2fOlP3798uwYcNUQ8CCZtMkEnBJAPNj8dHlnXfeETh4wnxtrEdMIQESIIFAEmADNpC0mRYJkAAJkEDYE9izZ4907NhRcuTIoeYN/vPPPzJ79mz5+eef5YMPPpD8+fOHPQNmMLwJtG7dWo4dOyaFChWSihUrSvPmzdWaxOGda+YukASeeOKJQCbHtEKMABuwIVZgNJcESIAESMB6BLA2K4YFP/300/LSSy/JhQsXZNy4cXL69GmZOnWqlClTxnpG0yISSCCBIUOGyL59++T69euCBgfWJ6aQgBkEnnzySTOiYRxhSoAN2DAtWGaLBEiABEjAvwTOnDkjeIEvUqSIFC9eXA4dOqSWHcEarvPnz5fKlSv71wDGTgIWIIAlnz755BNZsmSJWvopV65c6v63gGk0gQRIIEwJsAEbpgXLbJEACZAACZhP4MqVK6pntVSpUoIeAsxxxdxWNFoXLVok9erVMz9RxkgCIUCgbNmyyov2u+++qz7k4Pjrr78OActpohUJ0AuxFUvFOjZF3bp1y601WFRdR8zWQ5oxMTHiyTbomJ2ubny0DwSchfycmSBEl4uuHuJk/QAFeyE/ex7GkS4XXT3EG2n3H+awTps2TT777DP54osvVG9r7dq1ZdWqVZI0aVKFmvyMO85+q8tFVw+xB/P++/vvv+0z6OIomPa5MMcpyN/2NWvWTPAHJ09w+vTqq6+qkQpwYKYj/rbPlQ2hcv+5st0xLFz4wQuxt2HEuuWmqweW4cLP8b5wdazLRVcvkPzYA+uqRBlGAiRAAiQQ8QQ+/vhjqVu3rmTMmFE5YcLL+IkTJ2TDhg3Spk2b2MZrxIMiABJwQeC9996TH3/8UW7evCn58uVTjVgXagwiARIgAZ8JREVHR3u9SEcHkZiphwXDzYyP9rkv5mBwZvkmrDzIj/wMAqy/Bom4bULqx7JlywQNVzRSsfZllSpVZOzYsZIzZ864BDzs6ZRHQuxzl7ROurhWR4/2uaMskiRJEq8MyS+OX9asWdX6sahP/fv3V/Nksebxa6+9FqfksEd+DkBsDiOp/sIpmE5+gcdMPd5/Njecw64O50Dxi3KwjYckQAIkQAIkEFEE8HK9YMECWbNmjVqntVq1arJt2zbVa+RtKktEgWJmSSCeBF588UXZsmWLGskAb90zZsxQPbJFixaNZ4y8LNwJeBs+HO75Z/48E+AQYs98eJYESIAESCAMCXz11VfSvn17QQ9Rq1atJFmyZLJ8+XLlSXjEiBGq8RqG2WaWSCCoBFq2bCmY2/j8889LhQoV1FzZS5cuBdUmJk4CJBB6BNiADb0yo8UkQAIkQALxILB3717p3LmzPPXUU8pbMObmTZ8+XY4dOybjx49XL9XxiJaXRBCBf//9N4Jy67+sDh06VA4fPqycdaKnrV+/fv5LjDGHJAF6IQ7JYguY0WzABgw1EyIBEiABEgg0gZ9//lkw565AgQKCZT1Onz4t6GGFM6YpU6YoL6mBtonpkQAJiHKOhqH7S5culc2bN6sPS7NnzyYaElAE0FNPIQF3BNiAdUeG4SRAAiRAAiFJAGuyDhs2TPWoFixYUPbt2yfdu3cXDFWEg6bq1auHZL5odHAJwDkJxXwCpUuXVuspd+nSRQYOHCgNGjSQnTt3mp8QYyQBEggbAmzAhk1RMiMkQAIkELkErl27Jh9++KHAWUyxYsWUwxjMt7ty5Yqa24qXYgoJkIB1CbRo0UIwYqJQoULy8ssvS9OmTeW3336zrsG0zK8E4IWYQgLuCLAB644Mw0mABEiABCxPAHNY8bKbOnVqWbx4sbz66quCua7r1q0TvBBTSIAEQosAemIxP/bOnTuSPXt2gddiSuQRoBfiyCtzX3LMBqwvtKhLAiRAAiQQdAKffPKJ1KhRQ5InTy6TJ09Wva6Y04qlb+BZGB6FKSRAAqFLIEOGDDJ//nxZuXKlbN26Va3DPGvWrNDNEC0nARIwlUCiuz/6Me5ijIm5d8rbvA+z9WDP1atX5eGHH3Znmgo3O13d+Gif62Ihv4RxIT/yMwjw+WeQiNtu3LhRDQX+8ssvJX369GoJjtq1a8vjjz8ep/TfHvk5IRE+X5yZIESXC/Ry5swp+/fvl+joaNeR/RfK+88Zjy5nXOmK38KFC2XixImChi08iRcuXFglwvdTZ9au+Dlq6ZaH2XqwQ9e+8+fPq2e9o+22x8G0D3bw/rMtjXv7uuWbUH6J7ha+2wassYC7t4e12XrI1MmTJyVLliz3aLj5b3a6uvHRPtcFQn4J40J+5GcQ4PPvHgl4JkUvzNq1a1Wv6iuvvCKvv/668ihssHK1JT9nKny+ODNBiC4X6KHH//Lly/LAAw+4juy/UN5/znh0OeNKT/x69eql5rpXrVpVeRPPlCmTc2I2Ibrp6up5s89IWjc+s/XCyb7169dLlSpVDKQut+TnEotPzzXEYFY7D3F5qr84DzGj3DiE+B5L/icBEiABErAAga+//lratWsn2bJlU43VJEmSyKJFi+THH39UL6xYDodCAiQQmQTee+89OXLkiOo5z5Mnj1oiKzJJMNckENkE2ICN7PJn7kmABEgg6AQOHDggXbt2ldy5c6slbjAECWu0Yl4rhg2WKFEi6DbSABIgAWsQwBQCzIfF+rGY954jRw6ZOXOmNYyjFaYRoBdi01CGZURswIZlsTJTJEACJGBtAmicDhgwQJ599lkpW7asHD9+XIYMGSLnzp1TL6cVKlSwdgZoHQmQQFAJlCxZUr744gvp2bOnoGcWS2ht3749qDYxcfMI0AuxeSzDMSY2YMOxVJknEiABErAgAazpOHLkSLVOa968eWXXrl3SsWNH1WjFMOGaNWta0GqaRAIkYGUCmBf/008/SalSpaRy5crSuHFjuXDhgpVNpm0kQAIJJMAGbAIB8nISIAESIAH3BG7evCkTJkxQvayPPvqoWp8VL5xXrlyRFStWSMOGDd1fzDMkQAIkoElg8ODBcvToUaWN3rvevXtrXkk1KxLARwkKCbgjwAasOzIMJwESIAESiDeBOXPmSLVq1SR16tTy8ccfC7yG/v7774LlcFq1aiX33cefn3jD5YUkQAIuCTzyyCMyd+5c+fzzz9VwYjh6mj17tktdBlqbwC+//GJtA2ldUAnwDSKo+Jk4CZAACYQPgcWLF8urr74qKVKkkEmTJknx4sVVjwjmpWGoMMIpJBDKBDysPBjK2Qo72zE/duvWrdK9e3cZPny4vPDCC4I1pCkkQALhQSDKWIvHVXZu377tKtgpzGw9JIAfCU+2QcfsdHXjo30g4Czk58wEIbpcdPUQJ+sHKNgL+dnzMI50uejqIV7b+2/NmjWycOFC2bBhg6D3A+v2wTkTlsGBJE6c2OOzXDddXT2kaWsfjl2Jbnxm68EW2udcIrqcg80P7yX333+/cwZsQli+NjD+2w1W+TZo0EDwBwdxeDZhLWk0aOHJ2FaCZZ9uurp6yFO43H9Zs2b1+NuBvOpy0dULJ37IizfR5aKrh/QCdf+xB9Zb6fI8CZAACZCAHYGvvvpK2rRpI1jmoFOnTpI2bVpZtWqV7NmzRwYNGiQ5c+a00+cBCZAACQSTQL9+/eTgwYPq40O+fPmkb9++wTSHaWsQMD6CaqhSJQIJREVHR3vNto4OIjFTL1GiRKbGR/vcF7OZ5abLmeWbsPIgP/IzCASq/n733Xdqbtnq1avlxo0bqjcDc1vh+dOTBMo+WxtYP2xp2O/rlAf52TMzjjBvG/y8MSQ/g5jz1hs7XOEvfhkzZpR58+bJjh07lIMnzI/t0aOHvPHGG7GGBtO+WCM87NA+13B0uOBKHT1/3X+uLbcPpX32PIwjV1zYA2vQ4ZYESIAESMCOwKFDh9QLHpa8wfIUcML04Ycfyv/+9z+ZPHmy18arXWQ8IAESIAELEChRooRs2bJF+vTpo4YT4yPctm3bLGAZTbAlQC/EtjS470iADVhHIjwmARIggQgmcOrUKTUMuHDhwlK0aFHlhGngwIFy/vx51QNbqVKlCKbDrJMACYQLgaZNm8qRI0ekTJkyUrt2bWnSpImcPXs2XLIX8vmgF+KQL0K/ZoANWL/iZeQkQAIkYH0Cly9flnHjxknp0qUlV65cgjmu7du3F4QvWbJEeRa2fi5oIQmQAAn4TgAf6DA/Fg7nMH+/Z8+evkfCK0iABAJKgA3YgOJmYiRAAiRgDQLwKohhwOXKlVNrtcKbMLx1/vHHH4J5ruidoJAACZBAJBBIkyaNTJ8+XdatW6c+4GXPnl2mTZsWCVm3bB7hJJBCAu4IsAHrjgzDSYAESCAMCcydO1eqVq0qKVOmlNmzZwuGBF+6dEm9uLVu3VrLyUUYYmGWSIAESECtXb1582bp37+/jBw5UrCeLObLUgJP4Mknnwx8okwxZAiwARsyRUVDSYAESCB+BJYuXSp16tSRVKlSydixY+XZZ59VQ+Z27twpnTt3VuHxi5lXkQAJkED4EWjcuLEcPnxYjVCpVauWGp1y5syZ8Msoc0QCIUqADdgQLTiaTQIkQAKeCKxdu1YNA86cObPqTcCQOCwfsXv3brUGYpYsWTxdznMkQAIkEPEEBgwYIHAmlCRJEjU/FsvuUAJDgF6IA8M5VFOJunXrllvbMUdKR8zWQ5oxMTHiyTbomJ2ubny0DwSchfycmSBEl4uuHuJk/QAFeyE/UQ1UrM2K+axwSPLKK6/I4sWLBR6FcQxx91wlP/v7yTjS5aKrh3hZfw26cdtQ4Yf6c//998cZ7mKP5esMJVTK19lykWTJksmUKVPUerF9+/aV+fPnO60f63idbn7N1oMd4XL/4cOBt2HE5Od45907NpuLbnyBvP+iXGedoSRAAiRAAqFA4Pvvv1cvVHC8dOPGDalYsaLMmDFDXnzxRWW+Lz88oZBf2kgCJEACwSDw/PPPK18BkyZNUl7b582bp0azYBkeCgmQQGAJREVHR3tNUUcHkZiplyhRIlPjo33ui9nMctPlzPJNWHmQX2TzO3r0qGqkrly5Uq3P+tJLL8n7778vlStXdgvGzHrO+88tZq3fLfILXX4YyeCtLrF8Q7d8vZUtclazZk3p0KGDYPmd+vXrq4+Go0ePlkyZMjllXCc+XGSmXrjcf/BCbCYXXc7hwk83v2brBYof58Ci5CgkQAIkYHECZ8+elSFDhkiRIkXUH9YtxHqFFy9eVD2wnhqvFs8azSMBEiCBkCOA4cTHjh2TpEmTylNPPSXdu3cPuTxY2WBvw4etbDtt8z8BNmD9z5gpkAAJkEC8CFy5ckX1rJYqVUqyZcsmX375pbRt21b+/PNPWbRokdSuXTte8fIiEiABEiCBhBPAcmQzZ86UTZs2ybfffque05gvSyEBEvAvATZg/cuXsZMACZCATwTggAOOmDAsOE2aNIIlcOrVqyd//PGHcs70+uuv+xQflUmABEiABPxLAPNj0YgdPHiwWqqsdOnSgvVkKfEnQC/E8WcXCVeyARsJpcw8kgAJWJ7AggULpFq1apI8eXJZuHChWn8Q6w5u3bpV3n77bTVMzfKZoIEkQAIkEMEEGjVqpNbYrlChgjRs2FB9fDx16lQEE4l/1uGFmEIC7giwAeuODMNJgARIwM8Eli1bppyApE6dWoYPHy4FCxaUH374QRDerVs3SZcunZ8tYPQkQAIkQAJmE+jVq5ccPnxYLcGTK1cu9Tw3Ow3GRwKRTIAN2EgufeadBEgg4AQ2btwoGAacIUMG5fQjc+bMsm3bNtm7d68MGDBAsmbNGnCbmCAJkAAJkIC5BFKkSKG8xW/ZskV27dql5sdOnjzZ3ETCODZ4IaaQgDsCXAfWHRmGkwAJkIBJBHbu3Clz5syRtWvXClzMw2Mw5rYWLVrUpBQYDQmQAAmQgBUJPPfcc4IPl5gmgjmys2fPVkvwlC9f3ormWsYmeiG2TFFY0pCoW7duuTXs9u3bbs/ZnjBbD3HDkYkn26Bjdrq68dE+EHAW8nNmghBdLrp6iJP1AxTsxWr8MBR4/vz5snr1aoE3YcyJmjBhgtoalrt7xrF8DUJxW6uVb5xl9/ZonyMR37iECj/U2agoz9/+WX+d74VQKV9ny51D4lu+8BqPv6FDh0rdunWlbNmyMmjQIMmSJYtzIg4h5OcA5L9DXS66eog2vuXrykLddHX1aF8cZQ4hjmPBPRIgARJIEAE4ncAwYKzVCi/Cp0+fVi8rJ06ckEmTJgk8U1JIgARIgAQil0CPHj3kyJEj8vDDD6vfit69e0cuDA85xxq7FBJwRyAqOjra3bnYcB0dKJuph2F2ZsZH+2KL02knGJxZvk7FEBugUx7kF4vLaSfQ/M6fPy9z586V5cuXK++TZcqUEbygNGjQwMk2BATaPsMInXRpn0HLeUt+zkx07xez9YL9/PN2LwTbPtclFRdK++JYOO55K1vom8Evbdq0av3Yli1bSp8+fSRHjhzKJ0KbNm0cTbI7DpR9donePdBJF9fo6OnyO378uOTLl8/RFJfHOumabZ9ufGbr6fIzO13d+AJlH3tgUSIUEiABEvCBwPXr1+XDDz9UParZs2cXOOnAiwiGCqMh667x6kMSVCUBEiABEghzAhits2bNGhk2bJiMHz9eihUrJhs2bAjzXDN7JJBwAmzAJpwhYyABEogQAjNmzJCXX35ZsOzN4sWLpVatWoIeWMxzbdGiRYRQYDZJgARIgATMJICPnvv375cqVaqopdXq1Kkj6IGMZKEX4kgufe95ZwPWOyNqkAAJRDCBTz75RGrWrCnJkydX81hffPFF9WKBpW/at2+v1vmLYDzMOgmQAAmQgEkEsH4sGq5YgidPnjzSuXNnk2IOvWjohTj0yiyQFrMBG0jaTIsESCAkCKxatUqaNGkiGTNmlCFDhkjevHll9+7d8u2336r5renTpw+JfNBIEiABcwnAQymFBPxJAM6dpk2bJl9++aXs27dPeSn+6KOP/Jkk4yaBkCPABmzIFRkNJgES8AeBzZs3q2HAmTJlknfffVfQSMXcJLxAYO0+fg32B3XGSQKhQwDOSSgkECgChQsXlvXr18uIESNk8uTJUrJkSVm3bl2gkg96Oj/99FPQbaAB1iXABqx1y4aWkQAJ+JnAN998I+3atRPMtXn99dclceLEsmjRIrXEAV4aChQo4GcLGD0JkAAJkAAJuCdQv3592bNnj1StWlUaNWqk1pLFkm3hLpGQx3AvQ3/mjw1Yf9Jl3CRAApYjcODAAeXxMXfu3FKtWjW5evWqmttqrNVaokQJy9lMg0iABEiABCKbQLdu3QS/U3AiiOVlOnXqFNlAmPuIJsAGbEQXPzNPApFBAD/6AwYMkIIFC6phWKdOnVJzW8+dOyezZs2SihUrRgYI5pIESIAESCBkCSRLlkymTJkiO3bskB9//FEyZ84sEyZMCNn8eDKcXog90eG5RHdf7Nx6JDCcFXib92G2HooFvSKYyO5JzE5XNz7a57pUyC9hXMjPXH5//PGHGg6MOUMHDx6U4sWLqyFYNWrU4PPFBWrefy6g3A3S5aKrh1T4++bMOhT4YdQGnLk9+OCDzhmwCWH52sD4bzcUyhemenvfhY6VyhcOB99//311T8J3A7zkW8k+8HIU2udIRP93BleS3z1+ie4+VNw2YG/duqW0oqOj72m7+W+2HpI5efKk8rzmJkkVbHa6uvHRPtelQn4J40J+Ced38+ZNmTdvnixZskS2bt0qZcuWlbp160rz5s0lKioqNgE+X2JRxO7w/otFYbejy0VXD5Hz/rNDrA5CgV+qVKnkwoULXpfOYvmGZvnCam/vu9CxYvkOHTpURo8erRqwHTt2VCONYKs70a1vZuvBHivys+VE+2xp3NvXvQ+gHSh+HELsXE4MIQESCDECGAZcvXp15Tl4wYIFqqcVPbAbN26UVq1a2TVeQyxrNJcESIAESIAEPBLo0aOHajikTZtWypUrpzzpe7wgBE7SC3EIFFIQTWQDNojwmTQJkED8CaCX9dVXX5WUKVPK+PHjpVixYgIHTdu3bxd8gcZC8BQSIAESIAESiAQCGNqO5XaWL1+ufgsxPxa/jaEq9EIcqiUXGLvZgA0MZ6ZCAiRgAoHPP/9cGjduLI888oj069dPnnrqKcFSON999510795dMmbMaEIqjIIESIAESIAEQpNAnjx5ZO3atTJmzBjVoH3uuefUmuahmRtaTQKuCbAB65oLQ0mABCxC4Msvv5S33npLeVts3769YIjUmjVrZP/+/cqTcM6cOS1iKc0gARIgARIgAWsQqFOnjvzwww9Sq1YtadKkidqG0rBceiG2xn1kVSvYgLVqydAuEohgAuhRfeedd+TJJ5+UZs2aKc+QmNuKH9+xY8dK4cKFI5gOs04CJEACJEACegQwOgmOdTByKW/evGqKjd6VwdXC7z+FBNwRYAPWHRmGkwAJBJTAoUOHBI4o8ANbuXJluXTpknz44Yfy888/q3XuSpUqFVB7mBgJkAAJkAAJhAOBpEmTykcffaSm3OC3Fr2b4bp+bDiUF/PgnQAbsN4ZUYMESMBPBH799VcZPHiw6lEtWrSoHD16VAYOHCjnz5+XuXPnSqVKlfyUMqMlARIgAd8J/Pvvv75fxCtIwCIEChQooKbgjBo1SmbMmCHPPvuswLeEFSWUhjtbkV+42xRlrO3jKqO3b992FewUZrYeEsDytJ5sg47Z6erGR/tAwFnIz5kJQnS56OohzlCuH5cvXxYse7N06VLZu3evWrcOc1zhnMkQ27qvy0VXL9T5GYx082u2HvkZJWC/1eVMfvbcjKNQ4Xfnzh2v7yah/Hz2tTx0y01Xj/XDKAH7rdn8qlatqpabe//999U0HXjxx1qyjsN2ddPV1fOlfOGF2NEeeyp8v3LkYRzrlofZer6Ur2Grp60n+9gD64kcz5EACZhCAC99U6dOlZdfflmt1QonTPXq1ZPTp08rl/+2jVdTEmQkJEACJEACJEACHgl07txZ+ZZ49NFH5ZlnnhEcU0ggFAhERUdHe7VTRweRmKmXKFEiU+Ojfe6L2cxy0+XM8k1YeYQKv3nz5snChQtly5Ytkj9/fuUF8dNPP5VUqVLF9mLw/nO+F0KlfJ0tdw5h+TozYfk6MzFCdO6XQPLDkOH77ov71h8VFeX13SSQ9hncjK3V+Bl2GVvaZ5Cw3+pwwRU6er7ef4hzypQp8vbbb6vl6LJlyyZdu3aVDh06xBqpk67Z9mGerpnpmm2fbnxm6/lavkjfm5jJOVD2xT2VveWO50mABEhAg8Bnn30mbdu2VY1UrEOHOTYHDhyQnTt3qq+7aLxSSIAESMDqBN577z156KGHlHO5f/75J9bcQYMGqfCOHTvGhnGHBEKdAD4yYz4snCdifmyRIkWCOj/W2/DhUOdN+xNGgA3YhPHj1SQQ9gTy5cunlrTxlNF169ZJ06ZN1fDg3r17S5YsWWTHjh2ye/du6du3rzr2dD3PkQAJkIDVCKAXCj2uw4YNk3Tp0qlRI+idGj16tNy4cYPDLa1WYLTHFAJYNxb+KerWrSutW7eW2rVry5EjR0yJm5GQgFkE2IA1iyTjIYEwJPDaa68JHCmkTp3aKXfbt2+XNm3aqMYptilSpJCVK1eq3tZu3bpJnjx5nK5hAAmQAAmECoHEiROrZxyef9euXRPM5cfyXn/++ac0b95cMmXKFCpZoZ0k4DMBfMDB73+GDBnU8na2Q4p9jiweF9ALcTygRdAlbMBGUGEzqyTgC4HXX39dNUgxN8IYyoOvsu+++67kzJlTOWHCC93s2bPVj9wHH3yghgv7kgZ1SYAESMDKBLDMF55ztoI5sf3797cN4j4JhCUBfMTBkOI9e/YoZ0/4aDNu3LiA5BWNZwoJuCPABqw7MgwngQgm0LJlS8Fc1itXrigKmzdvlkKFCql1WbFG69ixY5UHYXgWLlOmTASTYtZJgATCmQBe4N988027USjsfQ3nEmfeXBHAVKLVq1fL+PHjZebMmWrt9lWrVrlSZRgJBIQAG7ABwcxESCB0CGBNVngONhqvWIfr66+/Vo5Mzpw5I/Pnz5fKlSuHToZoKQmQAAkkgIBtLyx7XxMAkpeGPIGaNWuq+bH169eXFi1aSPXq1eXQoUN+yRe8EFNIwB0BNmDdkWE4CUQggfLly8ucOXPk6tWrsbm/fv26HD9+XP3FBnKHBEiABCKEAHphMSrlwQcfFEyt4NzXCCl4ZtMtgS5dusivv/4qjz32mJofC4/cWHLKTDGmLpkZJ+MKHwJRt27dcpsb9LzoiNl6SDMmJiZ2nUh3Npidrm58tM91iZBfwrhYgd8jjzwiadKkEazjdfPmTbVUBOoinJZgSYlvvvlGFi9e7DqjNqGsvzYw/tu1Qvk6WxUXQvviWNju6XLR1UPcrB+2hO/tW51fnz59lIO6nj17en03YfmGXvla/f6zqn2YToSPOz169BB46IaPDEdnT5gvjmV5Tp48qW4M1g/WD9372ZMee2Cd7yOGkEDEEpg1a5YcPXpUedq8ePGirF27VjlwwFI4pUuXVuvCRSwcZpwESCBiCWA5HXy8Q48ThQRIII4AVhxYsmSJ8o0xb948ef7558V2fmzKlCnVlKROnTrFXaSxd+zYMQ0tqkQqgSh4GPUmOjqIw0w99ACZGR/tc1/KweDM8k1YeQSCH+4L/BDhD2KM1tC5XwJhnzuCtM81GR0uuFJHj+XrmjH5JYwL+ZEfCPD5krD7IFj8sH4s5saOGjVK4EsDH8SHDx+ulqDCuslw+lijRg3JkSOH1u8Mpi7BeZSO6PxuIR4dvWDxo33uS9pVubEH1j0vniEBEiABEiABEiABEiABEtAk0LlzZ4HDxyxZsqj5sStWrFBX/v3332q4sWY0VCMBjwTYgPWIhydJgARIgARIgARIgARIgAR0CcBbN5bcgQfvgwcPxl52+fJl7TWU6YU4Fht3XBBgA9YFFAaRAAmQAAmQAAmQAAmQAAn4TuDatWtSt25d5fwRPa+G/PHHH7JgwQLZuHGjEeR2Sy/EbtHwxF0CUaRAAiRAAiRAAiRAAiRAAiRAAmYQwLI6S5culaRJk0qyZMkEPbLGHxqxderUEWwpJBBfAmzAxpccryMBEiABEiABEiABEiABErAjMHHiRNX7ikaq8Yfhw1iS78SJE2qZPrsLXBz89NNPAg/HFBJwRYANWFdUGEYCJEACJEACJEACJEACJOAzASw7lS5dOvXneDHWg4WDJ2/yyy+/sAHrDVIEn+cc2AgufGadBEiABEiABEiABEiABEiABEKJQJSxtqMro2/fvu0q2CnMbD0kEBMTE7vupFOC/wWYna5ufLTPdYmQX8K4WJkfbPvnn3/k/vvvd51Jh1DWXwcgdw+tXL6wlvY5l5kvXMiP/AwC8Xn+3bx5U3lrhefVFClSGFFp10vef7HI7HZ0uejqIfL4lK+dUTYHuunq6oWTfVmzZg14OyCc+NncZm53de8rXb1A8mMPrNti5QkSIAGDQLVq1WTkyJHGIbckQAIkELYENm3aJOvXr1f5gzOaWrVqmZrXq1evykMPPST79++Pjbd79+7y1ltvKUc3sYHcIYEIJpAtWzbTc4/6DAdSlNAnEBUdHe01Fzo6iMRMvUSJEpkaH+1zX8xmlpsuZ5Zvwsoj0PwM74GJEyfWqpeBts+Wps79TPtsidnvk589D+NIhwt0dfR4/xlUnbdW4Ldo0SK5ceOGVKlSRd5++23lcAbPPogZ9qVKlUp5aM2ePbuK7/r168pb65YtWyR58uTOUDTTNcs+WwN08qubrq4e64dtCdjv65QH+dkzsz1q06aNqtueOJKfLTH7fU/cDM1A8WMPrEGcWxIIcQJffvmllC1bVlKnTi0lSpSQNWvWyMWLFyV37tyyffv22Nw1bNhQ+vbtK4MGDRJ8jTRk4MCB0rVrV3X422+/SeXKlSVTpkxqe+nSJUNNHNP5/PPPY89xhwRIgASCSWDo0KHSrFkzqVGjhjz22GNqf9q0aZI5c2b1hzUoIXfu3FHPP+ikT59emjZtKli7cubMmbJkyRJZvXq1eh6uWrVK5s6dq9aufPbZZ2OH9GJIXaFChQTnz507J7Vr11bP3vz588tHH30Ui+Drr78WhD388MNSsWJF+fHHHwXrYvbr1089n2FHr169ZN68eYIhk4YdiKBmzZrKk+vzzz+v4sazG/oUEogEAvBC/O+//0q7du3k0UcfleLFi8ubb74pLVu2VNnHyDB8bDIEH5w+++wzdQhHURUqVFD15rnnnpMdO3aocLwXLV68WO071tsRI0YYUXEbAgTYgA2BQqKJJKBDAC83aLziAZ4zZ07p0KGDpEmTRg1JW7hwoYoCLuw//vhj9eKFB/zx48djoz516pQgDIKhbPv27RMMa8MXtz179sTqOabTtm1bNScoVoE7JEACJBAkAqdPn5bZs2erxuA777yj9vFhrmfPnlK4cGHp0qWLsmz06NGChi16ZGbMmCFr165V5/ARsGjRouoZ2aRJE7Xkx5EjR9RHQTwTMbwYsm7dOvVcLFmypHTq1EmgM3/+fPVyjUY0nq3oWa1UqZJgXiuewTju06ePaoQiLjSYDTvQ04uGsmEH0vj5558FHxbRqMVzFs9ufjAEGUokEIAX4jlz5sisWbOkc+fO6iPR5MmTBQ1byOHDhwUf2w05evSo4GM75ijjYxHed1DHn3nmGfVxH7pYwgd6EMd6261bN1Vvjfi4tTYBNmCtXT60jgS0CeAFberUqephjZ4BY621evXqqV4CRISFxTH3Cr2r7gQP/40bN8qQIUPUl0984cQ1hjimgxc1DLejkAAJkIAVCDz99NMybtw49dKL4bqvvfaaaqi+++67cubMGeUYBi/FjRs3Vr2fr7zyinqZ/fTTT+Xxxx9XPbcZMmSQfPnyxWYH4UWKFBHoQNCLg+tSpkyp5tShZ7d06dJSsGBBdf7777+XFStWqDUw0TCF7pQpU5yWFTHsQMMWz2W8VBtpICI0XPFBESNmcuXKJYcOHVLx8x8JRAIBfLDBHHR8eEL9rV69utdsY5QY6gkav7gWjV48BzBawlYwF9ZVvbXV4b51CXAdWOuWDS0jAZ8I4Msj5lRh0fCMGTPGXtuoUSM1XA1D19A7W7VqVTHmc8Uq3d0xPJLv3btXxfHiiy+q09DFC6Eh7tIxznNLAiRAAsEkgKG4hiRLliy2UZkkSRIVjGG4v/76q2BoriE5cuSQCxcuGIcut3Xr1lUNYwxrXLlypUycOFHpwUcAhiyjx/SRRx6JvfbYsWOqMYzhwxBM50AjFk6cDPFmBxrOhsA7MYYfU0ggEghg5MIXX3whgwcPjs3uU089Jd98803sse2O8Q6DnlkI6putnD9/3vZQjU5zVW/tlHhgWQLsgbVs0dAwEtAnAG+W+IKPeVUYlmb7BR+NWjRAMbwNTkLQoDUES+MYgp5UiPHyhx5cQ/BiBjlw4IDbdAxdbkmABEggmAQcl/uCUxFHQYPVmDKBc3i22TZoHfVxjOkT6MEdM2aMmguLl180hjEnD/Ps0ADGvDo0miF58uRRDWVjCQo8YwcMGKDOGf+82eHqY6NxLbckEM4EnnzySZW9v/76KzabqF+2YtQtjBwz3mHQ2wpB/b5y5Yr627BhgxpxYVzrqt7ajjQz9Li1LgE2YK1bNrSMBLQJGF8WMbwGL2vGkjdGAxXDiIcNG6Z6XjE3BIIv+7t27VJDbeDkadu2bSocQ+IwrwtxwAkUhrgZPRPe0lER8B8JkAAJWJwAHL5g+ODBgweVl2FMlYDTF0hUVJSaS+eYhXTp0qlhwhjOCAcyDzzwgBq5grmtZcqUUT4HMHQZHxHRS4tnLV6K4RwGva6Yi4tnrq0YdqABjbVgbe2w1eM+CUQiAXxUwjsI6hQaqBj5YAgcs2FYMOa2jho1yghW89VxgBES+ACEa1C38fHJEPTWOtZbNJRRbymhQYAN2NAoJ1pJAh4J4OUJHvqwbtqDDz6oegDwFRI9BhCj1xWeMvFyBkGjFl8hCxQoIPXr11eeMtWJu/8wzxW9tRgOh3kn6EmAYFixq3QwtI5CAiRAAlYk4NgDi+MWLVqoXlQ4eMHQXLzQwsMpBM9T+AEwnp8YImyIEQYHTxA8b1u3bi2tWrVS8cBZE5xFwfESGri9e/dWf1ge54cfflAe4I24EK9hR968edVSOrZ2GHrckkAkEoCzprFjxyrnlPgQhPcbOKo0BPUVH96xWgIaufAoDsH8dXgCx0f7pEmTqvcfOHTDHHZDXNXbYsWKqXpr6HBrbQKcA2vt8qF1JKBFAC9kcBOPBz4anXhZunz5svrCiAjwIgWBp0tDMHTt7Nmz6posWbLE6uA8PGfiayXiw4sVPBEb80sc08FXTPxRSIAESCDYBMaPH69MMJ5X8K5uCHpzMNQQgmceHL2gUYm5sZgvZzR00UjFMxDPTbwAQ4z4MFzYWMZDnbj7D70/6F3F/FT0CmH6hdHohWdTOGH6/fff1agX4xpjLiuerbADf7ADwyYNO+Cp2EgX13311VfG5dySQNgTgBdijFDAx3T0vmJVBTiXNOoBPsjjPQc9sJgqZSv4qNSgQQNVr9DwxUcqCD7aG+JYb/FswJx04xlh6HFrTQKJ7j5o7z3NXdhnxS6IegAAQABJREFUFKLxMHWhooLM1kOkGG5jOD4IVLq6+aB9rkuE/BLGxV/84C3zk08+UUNpjOV0bC3VTVdXj/XDlm7cPvnFsbDd0+Wiq4e4+fthS/jePvk5M0GILhddPcTJ+w8U7IX87HkYR7pcdPUQb7jcf/i4hDWUbQXD8Xfv3q3eaRCuywV6y5cvVw1gOLKEzxB3Ei78kL9wbr8luluobhuwxpc/fCH0JGbrIS1MvsYXUk9idrq68dE+16VCfgnj4i9+WDsQc1jRa4D5rY6im66uHuJn/XWkHNeD4+15Sn7O7BDC+y9hXMiP/AwCfD4bJOK2rB9xLGz3dLno6iFu3fsPI8CM6UuGTRjaj+ubN2+ugnTThR7mwmK0GKZMeXKOpmsfDPD2e+6LfTrxQYf2gcJdXwX3NvxPAiQQrgQwF4tCAiRAAiRAAiRAAqFCwPBCbGtv+fLlbQ992kfPq7cGp08RUjmoBOI8EwTVDCZOAiRAAiRAAiRAAiRAAiRAAiRAAp4JsAHrmQ/PkgAJkAAJkAAJkAAJkAAJBJAAhhBTSMAdATZg3ZFhOAmQAAmQAAmQAAmQAAmQQMAJwAsxhQTcEWAD1h0ZhpMACZAACZAACZAACZAACZAACViKABuwlioOGhOpBOAMfNy4cQIX8RQSIAESIAESIAESiGQCTzzxRCRnn3n3QoANWC+AeJoE/Engm2++kddff11SpUqlXLynT5/en8kxbhIgARIgARIgARKwPAFXXogtbzQNDBiBKGONIlcp3r5921WwU5jZekgAPVKebIOO2enqxkf7QMBZyM+ZCUJccZk6darMmTNHfv75Z6lZs6Zs2rRJcuXKpSLwdt9DifVDobL754qznYLNAfnZwPhvl/ycmSBEl4uuHuLk/QcK9kJ+9jyMI10uunqIl/efQTduS35xLGz3dLno6iFu3n+2hO/tk58zE4R44sIeWNfMGEoCphM4ePCgdOjQQTJnziwzZ86Uhg0bypkzZ2TChAny9NNPm55eMCPcs2ePVKtWTS5fvhxMM5g2CZAACfhMoE2bNmpEjM6FHTt21FFTOqtWrZK33npLW5+KJBDJBI4dO2aXfd16OX36dJkyZYrdte4ONmzYoEbBuTvPcOsSiNJZ1FdHB1k0Uy9RokSmxkf73N+EZpabLudIKt8FCxbIrFmzZPfu3VK9enVZunSpFC9e3G2B6JSH1fkVKlRIMmTIINh+8MEHUqtWrQTlV/e+0tWzOj/a5/Z20fpdID/yMwjoPE9tnxsLFy6UFStWyHvvvefyXnOMb+LEieojpJEetu7uv1KlSkm7du3UB0xMHYE4xqcCXfwzU8+dfS6SpX0uoJCfCyj/Bencp7r8jh8/Lvny5VMx+1Iv//33X1m9erW8/fbbToY62oc62apVK5k/f35sQ1bXPkTuGJ9Tgv8FmKlH++5BZQ+su7uN4SSQAAKnTp2SLl26SJYsWWTUqFHy0ksvyaVLl2Tu3LkeG68JSNJyl6KXuV+/ftK8eXPp1KmT5eyjQSRAAiRgS+D69evSuXNnGTZsmPjDH0G6dOlUYxe/Dfv27bNNmvskQAJuCPhaLzENK3HixG5isw9Onjy5ekfr3r27XLhwwf4kjyxNgA1YSxcPjQs1AuhdrVy5smTPnl2whhmGsqDnFS9Fug/UUMuzJ3tbtmwpcFT1v//9T1544QXBF1UKCZAACViRQOPGjQU9Mm+88YbfzKtRo4bqGWrRooXf0mDEJBAOBAwvxL7WS18asODUoEEDqVq1qjRr1iwcsEVMHtiAjZiiZkb9RQDzPNHTmDNnTunatasULlxYzp8/L59++qlUqFDBX8mGTLzgsnPnTilQoIAUKVJEDacOGeNpKAmQQEQQgC8CzN3HUEJ/y5AhQ9QUC2MYsb/TY/wkEIoE4IU4PvXS1wYs2EybNk1OnDghw4cPD0VUEWkzG7ARWezMtBkE4Dm4fv36aqjZt99+q4adHT16VAYOHKiWxTEjjXCK48MPP5Tx48cLhupgzgmFBEiABKxAACNDevfuLWPHjlXzVwNh08cff6w+7GH9bwoJkIAzgfjWSzRgdeec2qYKfx0DBgwQONykWJ8AG7DWLyNaaCECd+7ckREjRkj+/PlVI+zxxx+XI0eOyOeff+7RUZGFshBUU9Dg//7779Xw6mLFinEeWFBLg4mTAAmAwJtvvimNGjVSTvYCReTBBx9UvUv4oIcRKhQSIAF7Ak2bNo1XvYxvA7ZcuXLKyVrPnj3tDeGRJQmwAWvJYqFRViPw1VdfSZMmTSRNmjSyZs0a5aAJa7hiuAkcNVH0CcA5ysaNG6V8+fJSunRpQc8shQRIgASCQWDw4MHKwR5GhwRa8AxEzy/nwwaaPNOzOgHUy4sXL6pRW77airVD4+tzBO908PILR2sUaxNgA9ba5UPrgkwASyQ899xzak3Thx56SH0p37Jli8CpACVhBAYNGiRYYmjMmDFqTdyExcarSYAESMA3AnAwhxflYH5EQwM2d+7cUqdOHd+MpzYJhCkBo15iZER8JL49sEZa8EI+adIkwRqxFOsSiEJBuxN8xdARs/WQZkxMjHiyDTpmp6sbH+0DAWcJF3779+9Xjaq1a9dKtmzZVM+r7ZxN477Uza/ZeiAfLvUDQ3b27t0rr732mnqJg8OGkiVL2t1c5GeHI/bAbC668cGAcLn/YmF62NHloqtHfq5hB4MfXpC7deumHO8Zz3XX1nl+33C81tf6gfmwTz/9tOCjHuyxFV0uunqI21f7bO1x3NdNV1eP9jkSvnccSfyMevnyyy/Hqx1w8+ZNwfI4tvXSF345cuSQPn36KG/hP/zwg8sC0Y3PbD3Wj7jiYA9sHAvuRTgBrNFqDGu9ceOGYEmc7du30+GQn++LBx54QJYsWaLmuoA/vn5SSIAESMCfBN599115+OGH1RBef6ajG/fkyZOVA8DNmzfrXkI9Egg7Arb1Eh0I8RE0GuM7hNhIr2PHjgIvyFgKkGJNAlE6nrp0dJA9M/UwBt3M+Gif+xswGJytUr7wcofhYwsXLlTzWzE0eOvWrfLrr79qz22NZH7u7qr4lC+G0pUpU0Z9MPjuu+/kk08+ETg6McRMzvGxz7DD3Zb2uSZjJhekoBMfy9d1WZDfPS6rV68WfLDEGt3Gi67OfeWOn+O18bn/4A8A8+/atm0rP/74oyRNmtSuEB3TsDtpc6CjFx/7bJJwuauTLi7U0aN9LhGrwHDmZ1a9hLNNvDu4YuUqzJG2cf/NmTNH8ubNK4sWLVKjxBz1cKwTn9l6hn2u7HEMC2f72APrWNo8jggCWKO1UqVKkidPHjl58qTMnj1bDWXt3Lmz3Hcfq0WwboISJUoIhnBj+A/KBj9oFBIgARIwk0CHDh3U3Nfs2bObGW2C40LvU9GiRaVu3boJjosRkECoEXCslz/99FO8smBGDywShtPOkSNHKodOly9fjpctvMh/BPim7j+2jNliBC5duiT9+/dXw0LgJh3LuJw9e1YWL14smItJsQ6BefPmCT4mYNmdXr16WccwWkICJBDSBDDKBvNN27VrZ8l8zJ8/X31UxYgUCglECgFX9fKXX36JV/Yx91W359FbArCrYsWKyheKN12eDywBNmADy5upBYEAnDHVqlVLDQnGGqSjR4+Ww4cPS9++fSVFihRBsIhJ6hB4++235X//+5/A6zOcOeBjA4UESIAE4ktg5syZgjmmGBpoZZk1a5aMGzdOVqxYYWUzaRsJmELA7HqJHtgkSZKYYhsiQX3EO+PYsWNNi5MRJZwAG7AJZ8gYLEgAX+DgDChfvnzSunVr1euKB9CyZcsCuli9BdGElEkov507d6rye+aZZ9SyOyGVARpLAiRgCQJYU7J79+4yatQo5bzJEka5MaJgwYJq6CLmw2LkEIUEwpWAp3r5xBNPxCvbaMCa1QNrGPD++++rTo+DBw8aQdwGmQAbsEEuACZvLoEdO3aoyfZp06aV9evXS48ePeTEiRMyYsQIeeyxx8xNjLEFjMD48ePVi2f79u2Va/uAJcyESIAEwoJAs2bNpEqVKtKgQYOQyE+bNm3U0MVGjRqFhL00kgTiQ8BTvYQX4PiIPxqwGAWG5RTplTg+JeKfa9iA9Q9XxhpgAhMnTpQiRYrIq6++KilTphQshI2hYvzxD3BB+DE5zEWB11B46ISjE34J9SNsRk0CYUQAjlgwn2769Okhlatp06bJ1atXndaGDalM0FgScEPAX/XSHw1YZAHTzxA3OkYowSfABmzwy4AWxJPA3r171RexDBkyqCVX8HXs3Llzgt66XLlyxTNWXmZlAlmyZFHLHJUsWVI1YrF2IoUESIAE3BGAV3M478NyaaEomH+HPywrRiGBcCGgUy8T4oXYzDmwtszxzoHhxF988YVtMPeDQCAKcwXdCb406IjZekgzJiZGPNkGHbPT1Y2P9oGAswSKH5a8wR8egNWrV1fzWgsVKqTW8/N0zwTKPkcyuunq6iH+SK8fQ4YMUQ1YLDaOYePoqSA/xzvv3rEuF1093n8J40x+geWHIX9vvvmmvPDCCy7fKXTve096jr87Zj6fs2bNqtaHxfQJjDLCRzxX4sk+R30z7dNNV1cPttI+xxLTf98NFX469RKjJrwNI3Z1X6E+YjlE23rpSs+Z8r0QT/cflvfDyghY8ufbb791F0VsuG66unqI2JN9RsK68ZmtF0j72ANrlDa3liaABxmWVcGPOXpY0XA9f/68TJkyRdB4pUQegWrVqqkhxXACUbhwYa0fk8ijxByTQOQSgKf5f/75R4YOHRrSEDAVpnbt2tK0adOQzgeNJwEQGD58uF/r5Z07d0x34mRbcl26dFE+VbBSAiV4BKJ0PHXp6CALZuolSpTI1Phon/ubzMxy0+WsW75LlixRw6fQy1a1alXBGnllypRxmRkz86Frn25+zdajffdugXTp0smaNWtkwIAByuEJtvA06k3Izz0hnXpEfuRnENC5X6Brpp7O/YchfpMmTVJLcemkraPjLh+O1+rY5ys/+HlALzJGnUyYMMG43GnraIuTwt0Af9inky5s0dGjfa5K7V5YqPPDsngYEo8l8rzlBV6IvekYpGz10IBNliyZy2tt9YxrHbc69x9GfeHD+dKlS6VevXqOUTgd66SLi3T0dOwzDNCJTzddXb1A2cceWKOUubUMgQsXLqghGk899ZRqmOBHG3NbMQfIXePVMsbTkKAQ6Nevn1ozccaMGaqnAj9gFBIggcgl8M4776jfkQIFCoQNhI8//ljwURfPOQoJhCIB9Fpi+K1OvfQ2fNhd/v3dA4t006dPL++9954aGXjt2jV3pjDcjwTYgPUjXEbtG4HPP/9catSooR4MP/zwg4wZM0aw7d27t+XX7fMtp9T2BwF83ICHYsx9gROvDRs2+CMZxkkCJGBxAnDoh2XTMNQvnCRTpkxqCk2nTp3ohT2cCjZC8oJ6iTncWCLKn4IGrL+cONnajSWA0MGCFRIogSfABmzgmTNFGwI3btwQOOTBxHgs2p47d245ffq06k2rXLmyjSZ3SUCPwKJFi+Stt95S86QxB45CAiQQOQQWL16shvVNnTo1LDNdp04dtRZlkyZNwjJ/zFR4EjDqpS+jB+LrhRgN2AceeCAgIDGtbd++fSHr5TwgkPyUCBuwfgIbydHqrM+JdVobNmwomMOI9VrR0Dh27JhytoFlcSgkkBAC7777rmzbtk19CMEC5JcuXUpIdLyWBEggBAhcv35dUPeHDRumRvKEgMnxMnHEiBGSKlUqad68ebyu50UkEEgCtvXSl/c7OO+Mj8Czru7cz/jE73jNuHHj1EjB+Da4HePjsR4BNmD1OFFLk8CCBQvU3AY4nHAlWD8LE9/R25o2bVrZs2ePbNy4UerXr+9KnWEkEG8CWHLi+++/l4wZM0r+/Pnl008/jXdcvJAESMD6BNArWapUKXnjjTesb2wCLcRIE0yT8OTQKYFJ8HISMIVAoOtloIYQG3CqVKkiGE7cokULI4jbABBgAzYAkCMlCXh9bN26tVqPtWLFirHZRiMVFTt16tSCH13Mf8D6WR988IHkyJEjVo87JOAPAhiyBO/EuAfhwdNR4MWYQ40dqfCYBEKLABpyu3fvVp7qQ8vy+FmbMmVK+eijj6Rr167y3XffxS8SXkUCfiaQkHoJL8TxESydFYg5sLa2oXPmr7/+4ruELRQ/77MB62fAkRI9hk5gnTosHI3hG/DQBjfjJUqUkHLlyikMmzZtEiyHw69UkXJXWCefuOcwbB1/6KE5depUrHEYjochQBQSIIHQJHD8+HE1hG/s2LFqiZjQzIXvVsNPBBw6cSix7+x4hf8JJLRextcLcTAasKCJZbuw5jTecyn+J8AGrP8Zh30KaLRWqFBBrly5ovKKhwcePKjMdevWld9//101ZgsWLBj2LJhB6xJAbz9+WHAfYk3hmTNnKmONxmyfPn2sazwtIwEScEsADbhGjRopx21ulcL0xMCBAyVr1qz0hBqm5RvK2QpWvQxWA/bZZ59VPbBwIknxP4FEJ06ciHGXTEzMvVNYlNaTmK2HtK5evep16RSz09WNj/bZ3w2VKlWSAwcOxAYmTZpUNRKwZp07Yfk6k+H958wEIbpcdPUQJ9ZSHD58uBodsHz5coGTiRQpUsjevXtje3B04zNbD/axfoCCvehyxlXkZ88OR+HKD0P31q5dK5gKYCu6+U2o3uOPPy5336Nskw74/YdRT+XLl1eOETGNx5uwfjgT0r0PcCX5eefnrl76wu/8+fNenbG5Krfs2bPL0aNH1ZJ6hqWu9IxzjtuEli8+pmXLlk0GDx6s/dwNpH22+dVNV1cPcSeUn7Z9d41yK3///XcM/ryJ2XpIDw1rb2J2urrx0b64krm7GHXMww8/jC8dTn9PP/10zN0FnuOUbfZYvjYw/tvl/efMBCG6XHT1ECfuv7s/jjF3f+hikiVLpu7du149Y+7OJ8NpJbrxma2HxFk/7pWB7X9dzuRnSy1uPxz5ff311zF3132OuTuyIi6j/+3p5jehevjtc5Rg1N/169crFnd9UTia43QcDPt0OcNY2udUZNq/g1bg56le+mLfypUrnUE4hDjeV3c/5sRERUU5aOm/R/hiH9J2Jbh/8T5x13Gkdrk55sNVvEYY68c9EhxCbNvU577PBO42YOWpp55S67dmzpxZkidPLuiBvftSIYcPH5ZixYr5HCcvIAF/E5g8ebLyTIzlde5+ZFHJ/fHHH8opCtYmppAACVifABwC9urVS4oXL259Y/1s4YsvvigYTtyyZUv5999//ZwaoycB9wSCWS/vNgSVI1H31vn/TJYsWdRcWCzpBXso/iHABqx/uEZMrLNnz1YehTGEGI6cLl68qIZjolFw5MgRCdfF5COmgMMwoxgyPGrUKNVwvXz5sl0OEydOrF6I7QJ5QAIkYDkCHTp0UNOM0Gij3CPQpUsXtYzdq6++SiQkEBQCZtbL+Hghhk+Wuz2wQcm7baIYyv/888/L66+/bhvMfRMJsAFrIkxGFUfggQceEMwNeu655+ICuUcCFiBQvXp1WbdunUyZMkW6desmWMPtscceU19t8eOH8D///NMCltIEEiABVwQ2b94ss2bNUs4BXZ2P5DAsVYePx2zYR/JdEJy8f/7556bWy/h4Ib5586bcf//9wQHgkOq8efPUEld4p6CYTyD4nynMzxNjJAESIAGPBPBlt3Tp0tKgQQM7ve+//1527dqlHDqhMUshARKwHgGs6zxo0CDl7d561gXfInhYx/MNXlHhZJFCAoEg0Llz56DXSwzZtUoDFiO6Ro4cKeiNrVatmmBoMcU8AuyBNY8lYyIBEghxAs8884y88cYbIZ4Lmk8C4UugcePGyu9C+/btwzeTCcwZRj4NGzZMMBfRWN4ugVHychLwSABDZfPmzStm1ktMS/NVrDKE2LAbI76wnCTXajaImLdlA9Y8lqbHBGcycEdNIQESIAESIIFIJ4Bhwxg+PGbMmEhH4TX/aEjAsVO9evW86lKBBBJCAPVy69atMmPGjIRE43TtL7/84hTmLQBDiK0wB9bWzg8++ED5h8GoEYp5BNiANY+lqTFh2MEjjzwiEyZMSHC8aARjLd8ff/xROnXqJJUrV1ZxFi5cWLBWF4UESMC6BNq1ayc1a9a0roG0jAQCQAAOAjFnHQ7YHnrooQCkGPpJwMnihQsXpHv37qGfGebAkgSMeoke/7tLKgbdRvTAYuiu1WTixInSv39/+eabb6xmWsjaE+VpnhcWx9YRs/WQ5t1VfsSTbdAxO13d+AJh34IFC6RVq1YCN9wGh/jah69RS5culQwZMsidO3fUH+IcO3asZMqUKTZ+5MuV6Karq4c0Ir18E8KZ/FzR038ehBo/DD3CaAzjOWDkXre+ma0XavwMXo5bs7noxkd+jiVx79gbv6ZNm8orr7wi8LB79uxZp/rgGKu3+Ax9M/Qc66aVft+mTZum5sMWLFgw9kOYlewzysF2S/tsadzb171PoR1Ifka9rFWrlvY7ua59WbNm9bme//XXX2oOrGOdDDY/zEfHh6Q333xTvvrqK6cCDrZ9TgY5BFjRPvbAOhSSFQ7xlRnOZD7++GPBF9Rz585J/fr1Beuswi336NGjlZnXr19Xa1nCoUXu3LkFPap3F05WPayYy4eeVixng4rcr18/NYTBNn8fffRRbEXavn27VKxYUdKnTy9lypSRNWvW2KpynwRIwA0BfFWF84py5cqp+oMf8t9//11pG3UX9Qp1d9y4cSocH5Ly58+vjnPmzCk//PCDnDx5UjlcgS7mzezYsUPpwmMy6jXEXXzqJP+RQJgSwJBhDCfE+s0U3whgXiJ6x9555x31/PDtamqTgHsC/q6X2bJlc5+4mzNoaFltCLFhKt7D0UuNjilKwglERUdHe41FRweRmKmHIa9mxhdK9mEy/LJly1SDskKFCtKjRw+1xirmGeBHvGPHjsp7apo0aeTw4cOC3tqePXvKpEmTpGHDhoIX6L59+6pKApf6CNu3b59qyMI723333afY4lo4ewBnfEXDC/Znn32mGs34sYPXNJSDIWaWRySXr8HT3VaHM/m5o6f3HDKT37Fjx1QDE8tWoG5iyC+GC+HYqLvz589XdRXnGzVqpEY+oP5hTgx6WLHkVKlSpdSPG3pM0GAtW7as+uj066+/yunTp1U9dRcfvlR7E537CnHo6JnJz7BbJ13aZ9By3oYrv/3798vgwYPVb6KRR6vdf4ZdRqlYzT44c9q7d6/6nd+yZYv6XXe02bDdcRsMPavxc2RC+0Rc1Utw0rlf/Mnvn3/+UTa4s8NduG0Z+9M+zBNGZ9NLL72k3rFt07UCP0d7HI+Dzc/WHvbA2tKwyD56ZpInTy558uQRvJjWqVNHNVLhkKFAgQLKSvTQGoKvYC1btpRmzZqpoOnTp6thViVLlpRDhw4Zah63aABPnTpV0HNbqFAhOX78uBq26PEiniQBElAE8CGoT58+6uNR7969ZdWqVSrcqLtY0sJV3UUjF/PQDxw4oOrqnDlzVBxDhgyRVKlSyfLly+0Ie4vPTpkHJBAGBDCVBg2w8uXLh0FugpcFjLjCEiP4OE0hgYQSCES9jI8XYtzjVu2BBfPs2bOrD3L4mE1JGAGuA5swfgG5Gj2mNWrUkJ9//lnSpUvnlGaOHDlUWNKkSVWDN2XKlMp1fpIkSQRfo3Tk0qVLqmL98ccfkjFjRp1LqEMCJPAfgaeeeiqWBerjnj171Fxzb3X3hRdeUNehNxaCqQC2cv78edtDNXrC07PATpkHJBDiBDBnDL9hcGpISTiBefPmqVFXGJrZoUOHhEfIGCKSQKDqJUYcoiPHF8EQYis6cbLNw9tvvy0YCYHRWBidRYkfAfbAxo9bwK7CXDn0rqKHB0MJMU/O0QNjQhdtxlAQ9B5hfD7mzBrz7QKWSSZEAiFO4M8//4zNwe7du1XvKQKMugtPoK7qLhq4EPS2QqCDdRvRI4sfOGNUBc7ZPgvcxQc9CgmEAwHc/1h+gvNezSvNJ554QjGF34z49G6ZZwljClUCVq+X6IG1egMWZT937lzZtm2bYMQkJX4E2ICNH7eAXQUHTHDWBMdKqVOnlg8//FDgZe3ff/81zQajlweOYzD23/jardt7a5ohjIgEQpQA1qY8cuSIGnqPXo7ixYurOedG3cV8dU91t0SJEirnmDuLH9+NGzeqOo+5r4bYPgu8xWdcwy0JhCoB9FLAl4Mx9D5U82E1u+ETA56cGzdubDXTaE8IEAhkvcQHF18Fv5Oh0IB98MEH1ZJg6M2GV3WK7wTYgPWdWcCuQGMSN3nr1q3VkjpYF3bJkiVSrFgx5YxBxxDEYQh6e3Bs9PogHMdoHOOFG8OKkF6yZMlUj1DdunWNS7klARLwQADD9jGMGHUIX4DHjx9vV3dTpEih6m7RokXt6q5RP7HEFeaowVsopgK0b99erdkM1/uG2D4L3MVn6HJLAqFMAPPr4HUfL3cU8wlgxBWeM3i3oJCALoFA18snn3xS17RYvVBpwMLgevXqqaWt4LiV4jsBzoH1nVlAroDHQEOwcHvXrl3l6tWr6kcdX5cwnBjuuLGeliEYrog/Q9CLY4ihZyzBg/Bdu3ap03iJxpIdGFKERjIcSKHnCH8UEiAB7wSwBBWcMZ05c0aMOem4yqi7aNQ++uijauQEFn5HHTbqpBE7XiYbNGignDnB0x8cqkEwdNgQd/EZ57klgVAnsHjxYrVuOTznU/xH4JNPPlHPGHhERcOEQgKeCIRKvQyVIcQG6ylTpki+fPlkxIgR6j3fCOfWOwH2wHpnZAkNNCzxRRqCBqexb6Zx+NqFxisEvT1p06Y1M3rGRQJhTQAjF2wbr0ZmbesuRj94qruof5jvjukCECyRtXLlSslqs0yOL/EZNnBLAqFA4MaNG2r5t6FDhwpGJVD8RwDPkQkTJqg1rPmxwH+cwyHmYNXL+MzTDqUeWOPewIgtLBVmu7qIcY5b9wSiUNjuBN68dMRsPaSJ3glPtkHH7HR146N9IOAs5OfMBCG6XHT1ECfrByjYS7D4Va1aVR544AHTnlfIlVG+8CSOHzYM53d8Hurm12w9W/vsS8D+yOx0deOjffblYByFAj+sR47pLE2aNHG63418WLF8HeumUX9tbXbc1y0Ps/Vs+VWuXFktUQTe33zzjZ2JZqerG5+tfXYGORzoxme2XiTap1MvdTn7wg9eiL0NI3ZMF41tLKPjWCcd9RxuJ7vDQNdfPPOwfvxbb70lO3futLPF1UGg7YMNVuTHHlhXdwfDSIAESECTQO3ataVKlSqa2r6poXEMV/uh4JTCt5xRmwTsCWAdckydmTVrlv0JHvmVwKBBgyR9+vTSvHlzv6bDyEOTQKjVSzRcQ/H3sn///oIP1pguSNEjEIW5Vt5ERwdxmKmHYbJmxkf73JdyMDizfBNWHuRHfgYB1l+DRNyW9SOOheOezv0SaH4nTpwQLO0ybdo05VzI0WbH40DbZ5u+K36OYVazz9Z+7Dvah6XzMA9v0qRJTuvDOubNMS7j2Ew9R/uMNFxtzUwX8evEFyn2+VovzeYHL8Q65WGbLlbPwIgod9e5C0cchgSrfFH/SpYsKS+//LL6M+xx3AbLPthhJX7sgXW8M3hMAiRAAiRAAiQQEALoAcQSbljODSMOKIEngPn7x44dU2tQ582bN/AGMEXLEbBCvfQ2fNgVtGvXrqmVNFyds3pYrly5VB3EcnoYtk3xTIANWM98eJYESIAESIAESMAPBDDvEkPn8MJGCT4BLK+D5cDq1KkTfGNoQdAIWKVexteJk04vYdDgaiQ8d+5c2bBhg8yePVtDO3JV2ICN3LJnzkmABEiABEggaATgtKRXr17KcVPQjGDCdgQ+++wzgVdiLOtBiUwCVqmXcOLkq8DZUCjOgbXNJ9Z5HzlypHTr1k1+++0321PctyHABqwNDO6SAAmQAAmQAAn4n0CHDh3koYcekoEDB/o/MabgE4Hp06dLv379ZPPmzT5dR+XQJxDq9RJOnEK9BxZ3EZw3vvLKK9KsWbPQv6n8lAM2YP0EltGSAAmEDoG1a9fK5MmTQ8dgWkoCIUxg9erVytswnDZRrEcAjmSGDBkibdu2lZs3b1rPQFrkFwJWq5dw4uSroAc2HBqwyPeMGTPk559/Vr2xvnKIBH02YINQyl26dJH27dsnOOULFy6otaMSHNHdCDBcCIspU0ggkgjA+yZe1t544w05c+aM37P+9ttvB3VeC547GB6GtfIoJBAsAujlgZOY+DhpCZbNkZZux44d5dlnn1VrUEda3iM1v1arl/F5PoRLD6xxD3744YfKT8D+/fuNIG7/IxDluNivLRndhWvN1oMN4bhQ74oVKwROEh599FH1RcVgH19+48aNU54DjXhsy85Xfobjhhw5ckiZMmVso9JewFg3H+FavnbQbA50uejqkZ8NXJtdX/ih4QpHCZcvX5aWLVtKp06dVEy2dUk3Pl/0MCSvWrVqTous22RD7fpafx2vtz22ta9FixbqGZQ5c2b18atHjx6xqrZ6sYFudvxln5vkVDDtc01Hl4uuHlLxZ/m+/vrrkidPHnnzzTft6oFV7HNNWTz+Dto+N/zNLz72OV6jW74YSlysWDHp2bOneol2jAfHuuWmq4c4de2DrjfRTVdXD+mFo30JrZdW4ff333/L/fffb/dsQZlZxT7Y4krc2ffCCy+oZyV+u7/44gt1aTjef66YIMwdF5xjDywo+Fn+/PNPadKkier5aNWqlaxfv14KFCiQ4FQXLVokeOiYIZUqVVJfxGEfJ42bQZRxWJEAhgkXLFhQrXcIN/WHDh2Kbbz6294DBw6oBvNLL73k76Tcxg83/YsXL5Y5c+bIunXrBEtm0NOhW1w8YTIBfDTaunWrGhpnctSMzk8EMMz7gw8+EAwvpYQnAavWSyzt5KugwRMuQ4iNvA8dOlR9NMGHJEocgSidgtbRQZRm6oXLQr0TJkwQ3Hzly5cXuARPnjx5HH2HPV/4LV++XF396quvOsRy7zA+/ODxDOPt69evL9u2bXOK1xf7nC52CIiPfQ5ROB3SPickKsBMLohQJz6rlS88+qHxivrXuXNnKVeunGTJksU1MIdQnfzqcFm5cqXytqoTn7/5wTkE/jDHZvjw4Wo+IrzB4jllBfscisDukPbZ4Yg90OECZR09f9x/V65cUT15Y8eOlbRp08ba7bgTLPt00nXHz/Faf/BzTMORm3Gso+eLfc8995yaYoTpB+gNSpMmjZGU3VYnXVygo+eLfTrx6aarqxdO9plZL83md/z4ccmXLx+i9SrGfXDnzh158MEH3d5nhp6nCK1YvviQ9Pzzzws6mzBSUicfyGMw9ALFjz2wnu7iBJz7/vvvpUKFCjJlyhSZOnWqLFiwwGPj1dekMLQHDU2zBfZGRUVJ8+bNzY6a8ZFAwAnAw+ljjz0my5YtUx+Sdu/ebdqoBV8zg3XdKleu7OtlftVHPT98+LD6UcQoEaz/iF5pCgmYTQDeNHH/N2zY0OyoGZ+fCWDePEaO+OOdw8+mM3ovBMKtXqIBG+rL6LgqMjTk4Rm8Xbt2rk5HZBgbsH4odjhpwjDFIkWKyN69e6V69eqmpnLx4kVZtWqVwCGMP2Tp0qVqrP2wYcP8ET3jJAG/Erh+/bpaP+2RRx5R9zE+yuzYsUM1zvyasIfIr169Kl999ZW4GzHh4dKAnOrdu7cafZE+fXrJnTs3HT0FhHrkJIJeV4zuQY8/JTQJ4KM5pkNhBAslPAhYvV7G1wtxkiRJwqOAHHLRtWtXyZYtm2BL4RxYU+8B9PLAOcWuXbsEPbAYOuwPwXwUfMnGy6Y/BIsoz5o1S63PZwxV9kc6jJMEzCRw/vx5eeeddyRDhgyC+aZLliyRTZs2qaGyZqYTn7gWLlwoRYsWNXUURnzs8HRN0qRJBR4PDx48KGfPnhU4eho8eLCnS3iOBLwSQF2Ex2H8blFCm8C8efMEDVk8zyihTSAU6mV8vRCHawMWdxzezfFeg1GdkS7sgTXhDsBXSQyLat26tbRp0+b/7Z0L3GVT+cfXnyHFyDVlCqV0kSk0KZdMUlJMaMJEoZBSuXRxKXLJFCEipIvKZSR0Uy6pSURuoRHFJzUzSHIrJswn9v/5Pjxn1tnv3ues8777vGefc57n83nfvc/ez17rWb91fdZaz7P08O8qnDSViXbuuefqsR9l76t4vskmmwRm50jTXXfdVUWQHoYj0BUEWNnhGBw8aaPE4ukXe1PstepC7JjApKAfCEdP7MKYNWtWuPjii8Naa63lK2f9kHE1lZHtpzgH7JfyX1MYayEWbQHjAuxh582bVwuZXIjRITCo9ZItxKl2n6NDrrdfrbzyyupLgJ2e2C8PM7kCO8bcZ1YZg2qMlu+8886u709nIIwL7W222WaMkrf/HOV1xowZYeedd27P7ByOwDgjwPZ8yicKF53Wddddp0rX+uuvP86StI/uqquuCttuu217xhpxoHCw9frAAw9UR08bbbRRwI7XyRFIRYBjmqibbo6Silj9+bCZxFZ+p512qr+wLmEhAv1SL3F82inhhXiQV2DBA1MkHFHit2KYyRXYUeY+hwpzXiqeTXHSdPbZZ4/L9sAzzjgj7LDDDqOUuvPPmG3FltAdb3SOnX/RHQSuvvpqncDZeOONw3LLLRfwVMhRMKwO1JEuueSSsMIKK+iRNXWUr51MsaMnJgxQxFn1dnIEWiEwe/bscOKJJwY88TsNFgInn3yyJqhbfjgGC616pYZjrPqlXqbu/pszZ04D5EFfgbWEchQe28DJy2ElV2BHkfM4McAGdcqUKQFFtmonTWUi4byJs9jG2wvZhRdeqHZxOHpxcgR6hQCrf1tssUXYeuutw5prrhnuvvtuPc910qRJvRIpKV5s4zfbbLMk3jozUf/nz5+vNsakhy1oOMxycgSuvPLKwFFVMdFPHXrooZWceR6H2+t7diRwTEe+P+QYKp7zfhgIGzw7U9rS+/jjj6v/D/vt194iUFQvmXQYpHpJOdxwww11NZJt7SiwrMBy7AyLL3vssUdvM6GLsaO8HnLIIeGOO+7oYiz1DdoV2A7yBrswPHRyFAe2Ycccc0wHX3fOynbh+AwsZrI5A6pbzpvKJFxsscXUcJz4WWl2cgTGEwEciaEwsV2GMwmZyDnuuOMCzsbqSJyhHCus2OSO1yRXt/HA0dMpp5yidsY4euIsXRz0OA03An/84x91IHXppZcqEJifcHzVICpzbL/EZOioo44KEydO1PQuv/zyutL89NNPB94PA+HkjZVYbPHs6C3yu44mHMOQH0Vp7Pd6meKFmN2BKKpnnnmmeujFDwb97f777x8WLFgQpk+fXgTNQDxDH8D/x+677z4Q6ek0Ef83d+7crOwjbC0hGutWVDUfcXHshHUOZXFXHW9ZeBhKM7uKPdg+++wTdtlll3GRj20R2LrijIatw1OnTtXOkVWodtQN/FAkmO3BAyHelvNUhl+ej9/dkK+qcuryFeVYUNtr3rTDORU/JoRWXHHFUmdLvKfcP/jgg7qFfe+99y4W7NmndSl/TGxhVkDHudtuu4Xtt99eVyXqIl8ZiKORjxl+zAwefvhhdWBHWo1Sw6uaj/i9fbFcWHRNxXk0+DGJwYoHR8ex5ZzVSZRZBpap8abyjUa+RSiMvEuNN+Y7/PDD9Wzphx56qClA0s5ZjcNU/mbOnKlHhF1wwQV6fCCAsL1xvfXWa8Imxq/pRcGPYcIvFZdUPuA0/MazXo5GvoKsbzxKDQ8+vGMfffTRmu5GAHKDmR9ee6HU8OA1/Lgvo9TwquZDnrx806ZN03FUfMRV1fGmhlckXxGGqeG15JOXpfTkk09m/LWjqvmID8W6HVUZr2yTzURhzsS2qynaE044IVtppZUymeXJxNtw4914yHfPPfdksiUpEzu/TAy2M5mNymR2Kbv11lsz5GpF3ZJPFPlMlNdMZpob0YuNn+ZXan7wYbfkawhVcOPyFYAij1JxSeUjlpT8leNuMrENHSHUaaedlsnOg0y8CmeyRaZn8qWmN88nW52zpZdeOlt22WWzddZZJxPnR5k4scnEfjRbddVVR6S36EEKfvl4i8LhWdV8hJmXT47WyMQGOZOtXNlll10GS1O8++23XyY7R/R5/t94yJePk99Vx5saHnHn8eNZnlLDq5oPOTqVb4MNNmC2W+uzrEZmsjLXSE4d5GsIU3AzGvkeeeQRreOk2f5kd0LGc6hT/ArEajwajXyNj0tuqpZPdpxkkydP1vwHD9rtPKWmg++qlo+429Egyjee9bLX+DGesLrIlfooZ683sr3X8jUEKbkZi3w33HBDJp6XsyuuuKIRemp4VfMhwHjVX99CLCUd2muvvcLChQt1tYffN910k654nn766TqzPF5OmojbSAa7AZsS6RQDjmtwVsOWPWmUwgEHHNCT4204F3LttddWO0STk9VpZt6dHIFUBPBiyRZUnDAZsZKHR+9TTz1Vz3NlWxrHNfQbURfwhMjODZxQ0Jawte6nP/2pnq3ab+lJkbfI0ZNtK+T7ZZZZJnDcmJ8rm4Jm//Hcf//9KjQrko899pjWX3ZXsAL7wAMP9F+C2kiM+QJb90ijEbZ2dTVrMBmrvHKcH8cGcr71jTfeqG2drUjT5jn1HoF+r5edeCFmrBCPJ7baaisdK/c+F7ovAdv22fmR36V27LHH6u6I7kvQmxhcgRXcDz744EBF5+woHMOwDE+BwN5uPJ00FRUBnEJAKLLY18hsif4+//zzQ4p9gDJX/O+8884L9913X5BVlSCrweoJjUGLkyOQggDbmmSmUFmxr0apYWKGrem8u/nmm7t+znGKnKPloRNdaqml9HNscMzREefUYh87yBQ7euIsbBz5kH5woA1j66UPbgevBLDN34jJGxyp8MckbCeDUAujH65HHHFEeOKJJ1RUbMP5PUyELxBOYaA+MzkVjwGYcHfqPQL9Xi9TvRCDNJPEjCcgzJyGrT6ix9DeshgH4aeH/hYdZlBp6BVYzm5llgKi0JP5NMw0yt120pRSqGQbYhMbziJwg87sUi8JJXbWrFkBZx0MTGk4OOvSyRFohQBetFFSccQEsavg8ssvV2cgst0n7Ljjjq0+75t3q6++epOsOGO75pprmp4N6g9z9IQNPxNdTE7gPwBCqfHzIwcr56nLKK1GrLriaBD7dSajWKEbRLJVWCaZh231lfxkfIT306Jz4lkIcOotAsNYLxmPUh/xPcH58MNGtLksbvGHQs+u0ngn1KDhMfQK7L777tvofNnyR6Vn5YC/OhBb74w4OgTlupfbdVmpZuvQ8ccfH5ZYYomAlzuIFSccujg5AmUIULdQXuLBLgoNM4TxVryy7/vpOW79jTif9pZbbrGfQ3Ml3RyzwSosiozRvffeO5DeaS19w3ZlosIcuzHBethhh6l5wHbbbTfwULDKs/nmmw/dao9l7Mtf/vIg9u+qyGJGEK+ADevRHoZNr6+DUC873WXI8UDURzyEDyOxAkubtOeee+qRd2DAIt2g0lArsLjdzm91EfvjIA6SdC89K0W9Jjwx87fuuuvqVl0KaC8Jl+XMNnOkDrOstm2IrSqsrjk5AmUIiJMP3WqWf4+NHJ62i2by87z98pu0iiOnsMYaa4Rrr722MbDrF/mrkhObHM4HNdMHwmW7IccgDfp26qowrHs4t99+u4qI4ooNJHaRw0KswuKdf5hsX4vylh0nKLKcw8ngmXHUsOw4KcKjDs8GoV4yQdIJsZBCfRzvoyY7kbEbvOx0WmWVVbQd4qQU+lvMdiAmMgaVJgxqwlLSxXbhxRdfXBVEVoJYGcIOFoWRmcQ6rAphN/fUU0/pyivbAXpNbPfE7gWDceTh+Awj8Txmt351BEYgsOmmmwa2l1LX+KP8UOdY1cdRGc7BBoU4QoK6y1FAsWOJQUlfSjp23XVXPWqEttTaVO5pM8h/jggzpy8p4TlPPRFgkoLVN+q203AjMGnSJB0fMPnPVnKn3iHg9bJ32I93zOx2YMKcBSUbX5kMnIs7qDTUCiyefLHP4sB1/sQNt3bCKLF1oXPOOacuojTkwM6AP2a6TjrpJJ1pxVELA9P58+cHtjo7OQJ5BNh6HpNNyNSpvsXyjeXePHOOJYx+/5YzozHRwNEN59bxRwdrf+Yhs9/T6fIHV169EDQh4MprExw9+9Hvk0o4gJNjG3uGX79EzA42HF5h+3rQQQcFlFb6Wwjnr+xyk+NA+yU5yXJOsEFk0RexrVrRe3tWNR/hsgWllWzwjDVejJxjIrzUMMdDvlg27lNlg3c85Ntyyy0Df9dff32Qc9/CRRddFGbPnp10VMh4yAcOMdUNv1g27l2+PCLP/E7FJZWPUL38jcS6avyYHISwlS8jW4Uvex8/r1q+1PCq5iNNXv7inH3mPhVnx28kdjxx/MaGi+NXP/xQytptI07Nt1Q+UOjX9nnatGmBP3ZJzpw5UyeP6WNxSssOuCJKxSWVbzzxG2ob2KLM9GedIzBlypRw1llnqaOaGTNmdB6Af+EIOAKOgCPgCDgCjoAj4Ag4AmNCgB2SrF7bubC33XbbmMKr68cTUrbvpfCQwCr58GpYZXguX3kRrApnOzokJTzP37Hlh+Pn+BkCKfUN3ir5vPwZ+iOvKTg7fiNxsyeOnyHRfE3BhS9S+Lz8NWMb/3L8YjQW3afgAncKX2r5wwtxSnip8abypcqXGl7VfKny4ZWZvxQMU3hS05EqX2p4ZXy+AgsyTo6AI+AIOAKOgCPgCDgCjoAjUAsE2m0froWQNRciVTGteTIKxXMFthAWf+gIOAKOgCPgCDgCjoAj4Ag4Ao6AI1A3BFyBrVuOuDyOgCPgCDgCjoAj4Ag4Ao7AECOAHaeTI1CGgCuwZcj4c0fAEXAEHAFHwBFwBBwBR8ARGHcE8ELs5AiUIeAKbBky/twRcAQcAUfAEXAEHAFHwBFwBBwBR6BWCHRVgX388ccbh+nWKtV9LMy8efPCrbfe2scp6L7oDz/8cLjxxhs7Ohev+1J5DI6AI9ApAn//+9/D7bff3ulnzu8IOAI1QoAzJJ966qkaSTQ4ojz99NMDO9bBC7GTI1CGQNcU2K985SvhBS94Qfj6179eFnfy80cffTTglhnF7VOf+lR497vfrd+uv/764cQTT0wOp98Z//Wvf4U3vvGN4Xe/+12/J6Vr8nMANeXj+OOPDxMmTOhaPB5wMQKf+MQnwrbbblv8ckieTp48OXz1q18dktQuSiaDVNrpm2++edHDDu7yuDFZt9566+kh7B0E46wtEBhrHrUI2l85AqUIvOtd7wpf/vKXS9/7i9EjAK7veMc7NIB8Gzr6UOvxpXshrkc+1FWKCQsXLiyVjc4uhYr4zjnnnLDnnnuG/fffP1gcRXxl4aOI2HcoIj/60Y/Ci170ovC///1P/3jHIHHSpEkNvrKwUuNN5SOeWL7xivf3v/99OPbYY8POO+/cNs29kK8O+GH0//a3vz0cdNBBI2Yl6yBfWVnh+SDI96EPfSiw82JYyx/5yKTai1/84hF1dBDyl/RBRflr6aNt5s9+P/NF+X/jy+N2zTXX6AToe9/73o7CK5MvL4HFm3+e/101Xy/ls7RYHuXTar+L8tfe2dXCst9l16r5iMflG4l2Ks69wI9Vwk5WCj1/0/OXlW2wpU5bG+r4peM3ktPblyJM6ti+dGUF9oADDtBZ+FmzZoXvfe974b777gs77rhjeMlLXhI22GCDcNxxxyk+//3vfwMzRocffnh49atfHVhRveCCC3QF7fWvf71eFyxYoBXzC1/4QmAFMqbTTjstoNRBV111Vdhiiy3CC1/4wvDWt741XHzxxTHruN7ffffdYcqUKeHII48Mr3rVq8Kaa64ZUOiNwGettdbS5x/+8IdVIefd1ltvHQ4++GDFgXR89rOf1YaJd6TvpJNOCp/+9Kd7nj7kSaVjjjkm7L777mGbbbbRQT33Z5xxRthwww01/ZQRozJc3ve+9ykWb37zm/UbGun99ttPw6PM3HbbbRoE5ezzn/+84gT+Vs4sfL+GcMghhyh2b3vb27SubLfdduGhhx5q4Ec9peyBq+HHpBH19Gtf+1pYe+21w5w5cwKrY1tuuaXybrTRRo1dAZdeeqnWYQK0ep8Pr275YO0Qq/bUyzXWWKMp7dQ5FFLSQX2lTaI+U8asUedK2/bzn/88nHrqqeHqq6/WZN500036fMUVV9TVxF/+8pf6nLZs11131TCJM24f6oYPE2a0ZdS/k08+OTzxxBPhwAMPVJxe+9rXhtNPP71QZNoyygvtX9zOkXZ2SYAJYTI5CeVxY2WBSVDK3mWXXaY8lMl99tknvOc971HsNt1003DvvffqO//XGQLU66KyTSi0CbTZ1IUddtgh7LXXXuG8887Tvor8OOGEEzRv2RVV1vfCQ17NmDEj7LTTTp0J1yNu6jF9C3WdevnFL35RJSEtTMaTFtpIiH6IcQsY7bvvvo22oKx+WDtKWITdD6ZA1C3aucMOO0zrcTyWsfLz0pe+VMd21jaCzQMPPKB1FGyoq9bH8K6s77DyMn369PCxj30M1qGmuO+gzlnfgcJKGSUv6Huvu+66Bk75NpQ+iXY2bkMbzH1w87e//a1JyrIx4rXXXqvjEdJKmm+55Rb9Lu5rNtlkk0ZfQ/mkfYOfMsrCUN2JfGZchswf/OAHw5/+9CcVOV9OrK+kztK+txvrgRd1z+j73/9+Y8wCRlZ3iYfyVqvyJDM1pfTkk09m/LWjPJ8UnkwKRfaRj3wkkwKYvf/978/WWWed7Cc/+Ukmq6aZAKXP//Of/+g9vDIIytZdd139LYPqTAaTei9KamZ8hCsVN3vnO9+pIsngKTv66KP1XgaYmczUZ7Nnz85kYKjxy6yUvsvLV5aeVD6+nzt3blkwmawCquyvfOUrswsvvFBxWGaZZRRLUbiz5ZdfPvvud7+bXXTRRXr/zW9+U9+tuuqqGXxnn312JsqqhvHb3/5W4yF9sjUzk0ZsRPqKBGkln/GnpncsfHvvvbemg6sMSPWe9B911FGZdGwZaYZa4ULZocyIMpzJAELvpUHOpKJlMkGg+Y6MVs5+8YtfZKJsKR/lzyg1HfDXBT+TPX8drXwyGaC4HHHEEZlMFin+omho+SvDT2Z29RvKJvkonYLiLgMbDWOPPfbQ9zznvTR6il9ZeJaW1Pyomo/4Y/ysfaGO/fCHP1T5KW9iS63llHSDF/VVzCKyj370o5nYZmqaZaJMsaOe2zeUV1G0MlGMlV+UtIwySXtIWDLBlYkCmEnHkV1xxRXapvEt/EaxfPYsf60al7LwpNPUtNG+0gbLJFS2yiqrZLRb0vHpO9p2Kyd/+MMfGvX529/+dqOd+853vqNJ2HzzzbX8iLKfiYKayc6aTCYFtI8owg28we2vf/2rYg9Wn/zkJzV+2hLu81Qn/PKy8btX8j322GOaX+QR7XFR2UY+2gna1jPPPDOTyQb9hr7W8pjvqOui4GRlfS99NXklZi/Z+eefT7Atqaz8FX3ULfxmzpzZ6IOtD5EJ0kYdJS0//vGPM5l41bTJIFHbQNoFK4ft6gfYwQt2pLkdpeKSykd8qfiJ/bmmk7Lws5/9rNGGEZeVn0MPPTSTSahG20j4lB/KBRjSH1AO4JPdOaV9h5UX2sVvfetbBNOSUtNbNR9CpeJH3O2oSL583xG3gaeccoqW0c997nPZZz7zGcV26tSpGo31PXfccUdT32Pf0/cYFcVr7+Jr1XyEnYofZc6oaIxIn4J8r3nNa7RfuvzyyzPZTp3JAol+Fvc11Ev6GpmkUh2C8pJ4CoUAABKsSURBVMkYUswcFUP6fqNU+Yi7HVWBH/0jfR1jZvpN2iHqVVk5IZ/pr6l38VhPFjBU3HhsFutktEl8gz7G+FAmSTLGh8Sz8sorZ29605t0LFNUnmIcxgs/tuKU0liAR8GQGUoNm8ZNVm2yRx55JPv1r3+tAPHMBo4M/iD4AY+BIwBsvPHGmcxsNvhaKbBUapkp0G+t4yHTobGkQwMo+Ncqg0yBZdBK3CjSKGoMgG+44Ybskksu0Ur0l7/8RRtzmW1UPnhk1bURG50A6YdI3z/+8Y/sn//8Z0M5s/Q1PohuWslnbFXjUhQegxwaVSMqodhJav4yeCe/+a4VLnz/8Y9/XIOQWadG+eGBrLhmslqvYVg5o7JdeeWVTXzwFsnH8yKqC35FsvFstPJRphggGFGu2uFng1YmEMDQ8o3BDUT5Jl8ZdMQKbFX5kZpvqXzIHONn7RADU4j2h3Ips7oZk1A01kYM4hmsQijwdIrEK6uUmdh56XMbRJx77rkaDuFB8DF4pcOUVa1MVmE0DvCjrUAOo1g+e5a/pqZ3rHwosLI7RKOX2X9NE52iEQoOHaKVE5Qj6jPtHW2UtXPUe9posDWs+Ua2nStPGW7EA2606+QFfYsRCrBNaNozrnXCL5bL7nslX6zAopSUlW0mKOirIcoPeRYrsEwwW7kq63tRSGgXaI/hbUcWXjs+3ncLPzAxRZR4mGilHMdp4TljEwaQRuLzQxW2lPoBdlBqeqvmI+5U/EyBZeIciscyVn5MPmsbrT9AOYCo49RfFFgUDMpSUd9hGINhqnzE3Y5Mvqr4CKfb8uX7DuK0NpD2dpddduGREsprXoE1pcz6Hhit73nmq/4of7ECWzRGpE8hf1FM6aOYWJbV1exXv/rViL6Gto++hv6JMhgrrPQhKHxG3c5fiye+tiqnNmFmYwTSx8JBWTkh/0kPiq4R7TSLhFA8Not1MiY+wEZ2xaq+xm9ZeW3Eg/5hlC9P9pzreOHXlS3EAkATLbbYYrpcv9xyy+l2pKaX8uMVr3iFPnruc5+ry/nwQc95znOSPdc9+OCDuqVCOszaOAtg+xyEY5PVV189yOpweP7zn69bXJdYYgndDsB245jYkmeEBzZz2ET6ZJYpyMCiNukzOdtdZYW9wbL00ksHqUT6m/yF2IrUDhfzRve85z1Pv2FbE7TUUks1tmBbOYNHKq++938jEZCBR+MhdQ+nO+RBO/ze8pa36HeikOiV7XOUbb6TjjJI49YIl5t24TUx1+AHW7Iga3/YCnjPPffodhoTD7zuv/9+/cl2QlE8tY1i6/AHPvABY9MrZ9hR9i08HvJbJqKCDIy1fWP7jswEh+uvvz5MnDix6fs6/WDrEMT2P0gGo5r35D9pN0z0pfyjPksnGqjvbHuyds4Opn/d616nrLSDbHsDF6Mi3NimCG4QbakR8ZBPTp0jQJ5Q/oysbGOSQV22vmjJJZfUPDQ+rtYWcN+q7yX8xRdfHLa+IDCxdCMw2+DZ7g7R51haZKAcZBKmUQdkJSzIBH1S/Yix04D74J9hEo9lysqPLDRof7CpbO+HqOMyOaX3MiDWa1nfQXmh3xh2KmoDre+QCeQgEygNiGRVrHFvN7TT8Md9T9yGGl/drzbuQ85WY0S282PKQJrBBvOlsr6GsQ4UY0jfnx+/KFNN/slOQh0n2BgB51aY7hSVkzifZQK+kQLad7YB58d6mIgYwYP/GEw2KTuYOVEfiYd+t27lqestBWDJTIF6z6XBo2KJ5m546dU6haaHHfxgLzi2fYAuM/4NG7wOgugKq8yWaLgyIaF2gyussEKQlYtAYUQJwLtyPICAmU7QiI6ASmvpw74TRQE74X6ifP7SCeapHS55j8L5MOJyxmCaBixfzvJxDuvvf//7342ky2xkYNIHsnpahp9hbvzUZco4f0zO0NgZ9WN+5MspaaGjMKWN3wzurc5iG4qNmKwMqv2brMjA0iDsjrC1AQtIViYCA186Tgb9dLgM6LDzpO3i6Ke6kuU9bRiEzYzlPZ1i3usy9VlmYdXOL27nsP2D5s+fr1cwwc4wxjiPG+0nbaYp0UX5pIH5v44QYLAS425lm0lBSLZsN8LLD+5MyeCbOva9DcE7vGHAbGWTT2WLYvjNb34zIpRll11WfTtYHQArJnJS6odhNyLQGj+wcUk8likrPygREPXfyMqSDYBb9R32zTBfi9pA+g7aQBSUuN7apECMF5PUcd9jbWistMX8db2PvRCXjRFxGrnSSitpenH8x8KR7NhTZZZ0WX3Gdpi+xsaF4Gn05z//Wf0x2O+6XVm8Qn8ynxukCd9BReWEvtLyOWWsR1kyTBg3y26qILtmdIJOVq0DdsfEw5jFxjJ1KU9dV2Bl+4iCgWMlGnccEQEKA5eqyDpXnAUw0OIIH4gC20tiVogCh+MT0ox3XBpyVh8YyMk214DxeYyFbMNUJZzBLX8YYFv6cPJUp/RViW07XNrFFZczjMwZYFddztrJ0C/vZRuXKk404GeddVZgBrcT/EyRkC0pOrsu23zUsRirlUY0dDSC1Pt+zg+Of8DBEgN1VvpwZEM9hsQmJEydOlUdGm211Va6G8DSz9X4aI9oB8QOUF9vttlmgRUbZjqZ1ZRtnPqcjrjuxMCdzpRJNNnypBNxOM+TbZZNolOfWXVhkGvtHO0xE3J0rjhjokOkjcQZHx7mjfK4/eAHP9BXYO1UHQKU2aKyvdpqq2mdpdziBIXJCQZPRWR9U9363iJZU57Rx1LeGNCyKwLHRKaUxt+zuiimQKpIoMTutttuuqsitX7EYfXDPWUgP5ax8iPbgZvaRpRU6riVH/H30dihgfNGqFXf0Q94dFvGVm3gtGnTtIziBIwyyuRxnkyBsb7H2lD6nn6lojGijfHBRLbT6lgGBYyyykRc3NcwDqevQSlmF4Rsedc+iHAZh1Oe60r0sSiZOEVlQhgHh0x4l5UTy2fZHtw01qP+5cd6sU525513qiKPEkybjuMr2jeLB0eXYFub8iSadCm12pMdf1TEJxq72izBJ2e36r5qyQDdk/1mcWrCvQCjz2VwqMFhOCyzd3rPHmpR3tQexfiwoxVPgA1bM9nWoo59RAFUo20pfBqebOVT2xuzjSqSTyPJ/Uvl47NWe7zNBlYGb410m20r++5JO3/YvJpTIuwK+Y3RtKUDY3Rkape+XDL0Zyv5jD81vWPhM5tIixPDeenQFD+M8kkrNlKtcME2Dvs3SCqWfoOxOSQzamoTh4xxOZNVsszKmTLKv9R0wF8X/Ez2/HW08plzDStj2GFi59AKP2nwFHPxgqd8yIJzNQuDK9hDlt/IV1V+pOZbKh9yxvhZ+2LtEO9JEw7UpEFvqpPYfclgHhYl2ix4sZMzoryanZvMGut76jt8OD6BsAHlt7UFsT0d72P5+F1EqekdKx82sNg/G8ksdyaTEio/aRDFUsuFlRNsZsrqs5hEqB2c4YE98Te+8Q39vhVuMhBTHmw2Y6xwYiKTJCZa41on/BpCRTe9kk8m9TTfyCNkiPubuGzLRE2jT6WNoN3GYVecx5QrnPLgMIVywF/c91pfPdbyF8HWuO0WftRt0mt102yESQvjCdIC4bDOnJvBC3a0o1BK/YCvalxSwyPuVPzMBjbGxMYyrcoPNv1Wx7GDxskONrDIWNZ3WHnpRD7LD74po1RcUvmIJxW/schX1HcQnkw86zjZ6hz1z9pAa0ORL/89bWhMqemtmq8T/PB5YlTWpzB2lslgrbOUNcodtusQNtdWDnFCRF8D4XzRnoMjfYooZvqOf+ORv43Inr1phzNjB8tzUcIzmbzQL8vyGRtY2m37hjrM+BmKx2bYyeKcCTwg9C6+AUu+x2cPRP3lueGWL0/K9Oy/8cKva06c4sRwLzO16p2XTEIhk2XrPEvT79EAwGBTlsw1HJyH0MlA7QqGMnXAB38r+UyBRcmiAjJoiAmFjcEyOEAUKuRFgcVYG2dNpqDF3/GNpSlOX8xj963kM56qcUkNj/iL5CvDxeQtu8bxUs6sbOXLWcxXFpY9L5LP3tk1Nbyq+Yh/tPKhwGL8T5m0AVcsXyf4UddwdCRbjg0S9VJJZ2DydRJeI5DcTSxf7lXTz1Q+PjL5mgLI/bDw6NiYPAMvq7Mxq/HFz+J76iw44VwCXiMcGjHYtTbLnnPtRL74u6L7dvLZN6l88NPG4QyDaxnhtA/He4aZrNA3BgkoQoZnWbyGGxMMUBlfUfx1x68u8pWVbbxBo8zRJssqh/ZNDAZjivOjrO+FP+aLv8/fp/LxXbfxo1yjnMeUl49yjYLHZICVceNPqR/58Ozb/LVqPsJPxc8UWNou6mt+LEP5oR1gnJPHgHrLO+SH4nQU9R3K9Oy/VPks7Pjb/H0cb/5d/DuVj2/GS764DYzlo/2k3MVOmuK0mHzx9/F77uPw8u/i31XzEbbJF8eTvyfe2IkT7/NjRPoUxsLwMtagPwWbmKyvoT7DZ8R3TMoz3s5TqnxxePkw7Dc8VfFRp5jAyMtXlM8osLKDpGmsZzJxtbEZsoGNjZt5h+NF+u6Y4ANvxjLWJ8fv4/u8fPE7u68ClwmiUY8LyUx7wwCYbbCcCVs1xfvlceRjDn+qjic1PNKJTDjBiAlnVTgxMBLF1W71yhl0RWROZnhXh/QVyTiWZ+1wSQmbcmbUrXJm4ffzFec6bO/MUyf4sV1OZu8aQbAdke3E22+/feNZJ+E1PqrZDfbX5sRkNKJhn8OfdKRNn2NLXOSAo4mppj9wzGLO2MpEpD5ji0U9hOJ2ju+Lyl8cluEWP/P7ahEoK9tsS5SdMup0EVMW7Dbjup6Xom59b16+Tn/HfW3Zt5RryncRpdSPou/q+oz8L6qvlJ/YWWUsPw5nytqIfN8Rf+f3ixCI28C4/6B8yekBixhL7uLvS1j66nHRGNFwYawRjzcsYdbXGJ89ZwxtzkDtWd2v1Cn+sFuNqVU+txvrgQv1O9bJZLU2Dr5xTzxxP9540aObCflMjeWQ2bX4Z+l91XxEJFr6iAFfXoCq400Nr518FDDZDqP2gSlhGg+2cHgNK8sT48vjUPS7n/Gz9KSmt2q+dvnbz/JhK0InEJexqvDDqzROElBgcSARx2GYxdeq4rUwU8OD3+uHobbo6vgtwiK+S8UllY+w617+jjzySLWtkxWK8IY3vEE9SlO/4zqdmt6q+foBv7rnb6p8NpbBcVqc98NeP1Lxi3Equ/f6UYwMuKwhDsHKyp195fgZEs1X7PmxAx5k/MZtBbYZ2sH+hRODL33pS2rs3ElKxbakE3bndQQ6RiBeHe344zYf0GA6OQKOQP8jwO4AsWfXv/5PjadgtAjYWGa03/t3jsBYEMDjstPoEJg+ffroPuyjrybkt7cWyZ7Cw3dV8rE9p8rwXL6inH3mWS9w9vwdW344fo6fIeD115BYdPX6sQiL/F1KeXH88qgt+u34LcIivkvBBf4UPi9/MbLN945fMx72KwUXeFP4vPwZqiOvdcJvsZHi+RNHwBFwBBwBR8ARcAQcAUfAEXAEeoOAOEPrTcQea18g4ApsX2STC+kIOAKOgCPgCDgCjoAj4AgMBwJ33XXXcCTUUzkqBFyBHRVs/pEj4Ag4Ao6AI+AIOAKOgCPgCDgCjsB4I+AK7Hgj7vE5Ao6AI+AIOAKOgCPgCDgCjkApAi972ctK3/kLR8AVWC8DjoAj4Ag4Ao6AI+AIOAKOgCNQGwTi86VrI5QLUhsEXIGtTVa4II6AI+AIOAKOgCPgCDgCjoAj4Ag4Aq0QcAW2FTr+zhFwBBwBR8ARcAQcAUfAEXAExhUB90I8rnD3XWSuwPZdlrnAjoAj4Ag4Ao6AI+AIOAKOwOAi4F6IBzdvq0jZ/82dOzcrCyjLnnnFob6tqGo+4nr00UfDxIkTW0Ubqo43NTyXrzhbHL+x4eL4OX6GgLd/hsSiq9ePRVjEd6m4pPIRtpe/GOFn7h2/kZjwJBWXVD7C9PIHCs00jPjNmTMnTJ48uRmI3K9UXFL5CN7LXw5k+VlH/CasttpqIyV99snChQv1bskllyzl4UXVfIQ5b9680Eq2bsSbmg6XDwRGkuM3EhOepOKSykeYXj9AoZkcv2Y87FcqLql8hOvlz9BddHX8FmER36XikspH2F7+YoSfuXf8RmLCk1RcUvkI08sfKDRTN/BbsGDBuOsBpMrztzlv+dWN/CXcseiXvoUYBJ0cAUfAEXAEHAFHwBFwBBwBR6AWCLgX4lpkQ22FcAW2tlnjgjkCjoAj4Ag4Ao6AI+AIOAKOgCPgCMQIuAIbo+H3joAj4Ag4Ao6AI+AIOAKOgCPQUwTcC3FP4a995K7A1j6LXEBHwBFwBBwBR8ARcAQcAUdgeBBwL8TDk9ejSen/Axf8jFA1jkpmAAAAAElFTkSuQmCC;movable=1;resizable=1;rotatable=1;deletable=1;editable=1;locked=0;connectable=1;" vertex="1" parent="1">
                    <mxGeometry x="20" y="290" width="944" height="282" as="geometry"/>
                </mxCell>
            </root>
        </mxGraphModel>
    </diagram>
</mxfile>